<?xml version="1.0" encoding="UTF-8"?>
<svg width="110px" height="110px" viewBox="0 0 110 110" version="1.1" xmlns="http://www.w3.org/2000/svg" xmlns:xlink="http://www.w3.org/1999/xlink">
    <!-- Generator: Sketch 57 (83077) - https://sketch.com -->
    <title>Page 1</title>
    <desc>Created with Sketch.</desc>
    <g id="Page-1" stroke="none" stroke-width="1" fill="none" fill-rule="evenodd">
        <g id="Desktop-HD-Copy" transform="translate(-502.000000, -3550.000000)">
            <g id="Page-1" transform="translate(502.000000, 3550.000000)">
                <path d="M110,54.9996327 C110,85.3757546 85.375919,110 55,110 C24.6244483,110 0,85.3757546 0,54.9996327 C0,24.6242454 24.6244483,0 55,0 C85.375919,0 110,24.6242454 110,54.9996327" id="Fill-1" fill="#000000"></path>
                <path d="M35.1764706,71.9122266 L47.3797272,52.6784475 C49.686657,49.1738298 57.5394776,38.4468189 57.5394776,34.6747588 C57.5394776,31.7589487 55.2049135,29.4044421 52.3395545,29.4044421 C49.4490734,29.4044421 47.1407081,31.7589487 47.1407081,34.6747588 C47.1407081,36.018847 47.6453041,37.2507469 48.4775646,38.1801003 L50.5447574,41.1375286 C50.5447574,41.1375286 47.6991373,45.7162588 46.1325927,48.1304786 C43.2410349,43.6903553 39.7662847,38.3932581 39.7662847,34.0595327 C39.7662847,27.051383 45.3896952,21.3529412 52.3395545,21.3529412 C59.3170482,21.3529412 64.9411765,27.051383 64.9411765,34.0595327 C64.9411765,40.2928593 60.6700546,45.1614696 57.2473431,50.5653266 L57.2473431,50.5381843 L52.1012531,58.9917536 L52.1281697,59.0178102 L35.3358167,86.7058824 L35.1764706,71.9122266 Z" id="Fill-4" fill="#FFFFFF"></path>
                <polygon id="Fill-6" fill="#6A01E9" points="68.8235294 72.0081769 57.7418752 55 53.2990237 62.0417966 59.2450626 71.5889411 47.623126 71.5889411 43.5882353 78.0608501 63.2755547 78.0608501 68.6600518 86.7058824"></polygon>
            </g>
        </g>
    </g>
</svg>