<?xml version="1.0" encoding="UTF-8" standalone="no"?>
<!-- Created with Inkscape (http://www.inkscape.org/) -->

<svg
   xmlns:dc="http://purl.org/dc/elements/1.1/"
   xmlns:cc="http://creativecommons.org/ns#"
   xmlns:rdf="http://www.w3.org/1999/02/22-rdf-syntax-ns#"
   xmlns:svg="http://www.w3.org/2000/svg"
   xmlns="http://www.w3.org/2000/svg"
   xmlns:sodipodi="http://sodipodi.sourceforge.net/DTD/sodipodi-0.dtd"
   xmlns:inkscape="http://www.inkscape.org/namespaces/inkscape"
   version="1.1"
   id="svg5681"
   xml:space="preserve"
   width="1122.5601"
   height="816"
   viewBox="0 0 1122.5601 816"
   sodipodi:docname="cavalcade2.svg"
   inkscape:version="0.92.4 (5da689c313, 2019-01-14)"><metadata
     id="metadata5687"><rdf:RDF><cc:Work
         rdf:about=""><dc:format>image/svg+xml</dc:format><dc:type
           rdf:resource="http://purl.org/dc/dcmitype/StillImage" /><dc:title></dc:title></cc:Work></rdf:RDF></metadata><defs
     id="defs5685" /><sodipodi:namedview
     pagecolor="#ffffff"
     bordercolor="#666666"
     borderopacity="1"
     objecttolerance="10"
     gridtolerance="10"
     guidetolerance="10"
     inkscape:pageopacity="0"
     inkscape:pageshadow="2"
     inkscape:window-width="1920"
     inkscape:window-height="983"
     id="namedview5683"
     showgrid="false"
     showguides="false"
     inkscape:zoom="7.7647059"
     inkscape:cx="818.15444"
     inkscape:cy="404.32684"
     inkscape:window-x="0"
     inkscape:window-y="27"
     inkscape:window-maximized="1"
     inkscape:current-layer="layer5" /><g
     inkscape:groupmode="layer"
     id="layer4"
     inkscape:label="Vector sky 1"
     style="display:inline"><rect
       style="display:inline;fill:#ffcc00;fill-opacity:1;stroke:none;stroke-width:1.0227114"
       id="rect5758"
       width="1123.0909"
       height="564.60602"
       x="7.038814e-14"
       y="2.0400001e-05" /></g><g
     inkscape:groupmode="layer"
     id="layer3"
     inkscape:label="Vector Ground"
     style="display:inline"><g
       id="g5789"><rect
         y="447.66666"
         x="-1.3260465"
         height="117.45457"
         width="1125.0909"
         id="rect5702"
         style="fill:#ff9802;fill-opacity:1;stroke:none" /><path
         inkscape:connector-curvature="0"
         id="path5734"
         d="m -1.3260465,447.66665 173.0908965,-28.84848 72.12122,22.66667 161.75757,-5.15152 71.09091,-21.63636 34,23.69697 42.24242,-22.66667 30.9091,1.0303 18.54545,-11.33333 64.90909,1.0303 69.0303,23.69697 125.69697,-23.69697 11.33334,24.72728 94.78786,-25.75758 10.303,-16.48485 47.39402,-17.51515 30.9091,-24.72727 17.5152,3.09091 17.5151,-22.66667 30.9091,-8.24242 1.0303,183.39394 -1125.0909474,2.0606 z"
         style="fill:#ff9802;fill-opacity:1;stroke:none;stroke-width:1px;stroke-linecap:butt;stroke-linejoin:miter;stroke-opacity:1"
         sodipodi:nodetypes="ccccccccccccccccccccccc" /></g></g><g
     inkscape:groupmode="layer"
     id="layer8"
     inkscape:label="Vector martians 1"><path
       style="fill:#f2f2f2;stroke:none;stroke-width:1px;stroke-linecap:butt;stroke-linejoin:miter;stroke-opacity:1"
       d="M 1.5454547,350.81818 527.4588,246.2862 538.75109,249.92887 -1.5454543,434.78788 Z"
       id="path6061"
       inkscape:connector-curvature="0"
       sodipodi:nodetypes="ccccc" /></g><g
     inkscape:groupmode="layer"
     id="layer6"
     inkscape:label="Vector martians"
     style="display:inline"><g
       id="g6029"><g
         id="g6002"
         style="display:inline"
         transform="matrix(1.3333333,0,0,-1.3333333,0,816)"><path
           style="fill:#000000;fill-opacity:1;stroke:none;stroke-width:0.75px;stroke-linecap:butt;stroke-linejoin:miter;stroke-opacity:1"
           d="m 389.8569,392.04251 c 1.09281,0.8196 27.86644,25.68083 27.86644,25.68083 l 5.73721,5.19081 -6.83001,7.10321 -4.098,1.0928 -8.46921,-6.5568 -8.46922,2.732 0.54641,2.732 19.39722,5.73721 6.83001,-4.91761 8.19601,-2.1856 25.40763,9.56202 8.74241,4.098 4.64441,-3.82481 -5.73721,-3.0052 -7.10321,-17.75803 -1.9124,-7.1032 1.366,-6.83001 -10.92802,-0.8196 -14.75281,-11.47442 h -18.30443 z"
           id="path5871"
           inkscape:connector-curvature="0" /><path
           style="fill:#000000;fill-opacity:1;stroke:none;stroke-width:0.75px;stroke-linecap:butt;stroke-linejoin:miter;stroke-opacity:1"
           d="m 386.0321,365.26888 22.40243,26.77363 16.11882,6.28361 c -15.25574,-8.21928 -31.81148,-36.83114 -38.52125,-33.05724 z"
           id="path5873"
           inkscape:connector-curvature="0"
           sodipodi:nodetypes="cccc" /><path
           style="fill:#000000;fill-opacity:1;stroke:#000000;stroke-width:0.75px;stroke-linecap:butt;stroke-linejoin:miter;stroke-opacity:1"
           d="m 369.09368,322.10322 16.93842,43.16566 2.32623,0.35322 -18.99145,-49.25608 z"
           id="path5875"
           inkscape:connector-curvature="0"
           sodipodi:nodetypes="ccccc" /><path
           style="fill:#000000;fill-opacity:1;stroke:#000000;stroke-width:0.75px;stroke-linecap:butt;stroke-linejoin:miter;stroke-opacity:1"
           d="m 410.62014,368.54728 10.92801,24.58803 13.66002,4.37121 z"
           id="path5877"
           inkscape:connector-curvature="0"
           sodipodi:nodetypes="ccccc" /><path
           style="fill:#000000;fill-opacity:1;stroke:#000000;stroke-width:0.75px;stroke-linecap:butt;stroke-linejoin:miter;stroke-opacity:1"
           d="m 413.32752,372.26461 0.57102,-4.53693 12.84042,-68.30009 -2.45881,0.81961 -13.66001,68.30008 z"
           id="path5879"
           inkscape:connector-curvature="0"
           sodipodi:nodetypes="cccccc" /><path
           style="fill:#000000;fill-opacity:1;stroke:#000000;stroke-width:0.75px;stroke-linecap:butt;stroke-linejoin:miter;stroke-opacity:1"
           d="m 445.04337,402.97054 27.04684,-15.29923 1.36601,5.464 -17.48483,10.65483 z"
           id="path5881"
           inkscape:connector-curvature="0" /><path
           style="fill:#000000;fill-opacity:1;stroke:#000000;stroke-width:0.75px;stroke-linecap:butt;stroke-linejoin:miter;stroke-opacity:1"
           d="m 475.64182,377.83609 28.41283,-69.11968 1.36601,7.64961 -27.32004,65.56808 z"
           id="path5883"
           inkscape:connector-curvature="0" /></g><g
         id="g5869"><path
           style="fill:#000000;fill-opacity:1;stroke:none;stroke-width:1px;stroke-linecap:butt;stroke-linejoin:miter;stroke-opacity:1"
           d="m 637.83174,286.71986 6.55681,-14.93495 3.64267,-6.19254 7.28535,-11.29228 6.64898,-7.14205 8.26388,3.13511 7.39961,2.06061 -8.47032,15.05994 3.58396,1.1957 11.41349,-4.99684 9.36046,-7.44001 9.66603,-0.25379 -6.33964,12.95201 -25.4987,13.11362 -33.51258,8.74241 z"
           id="path5845"
           inkscape:connector-curvature="0"
           sodipodi:nodetypes="cccccccccccccccc" /><path
           style="fill:#000000;fill-opacity:1;stroke:none;stroke-width:1px;stroke-linecap:butt;stroke-linejoin:miter;stroke-opacity:1"
           d="m 644.38855,229.52992 9.10668,-5.82827 8.01388,2.1856 7.28534,7.64961 22.67674,2.48737 15.08205,-3.98105 3.76766,-24.00502 -35.33391,20.03469 -17.84909,-10.92801 -12.02081,4.3712 z"
           id="path5847"
           inkscape:connector-curvature="0"
           sodipodi:nodetypes="ccccccccccc" /><path
           style="fill:#000000;fill-opacity:1;stroke:#000000;stroke-width:1px;stroke-linecap:butt;stroke-linejoin:miter;stroke-opacity:1"
           d="m 696.84302,268.87077 20.03469,25.13443 4.00694,-2.1856 -23.03721,-29.08267 z"
           id="path5849"
           inkscape:connector-curvature="0"
           sodipodi:nodetypes="ccccc" /><path
           style="fill:#000000;fill-opacity:1;stroke:none;stroke-width:1px;stroke-linecap:butt;stroke-linejoin:miter;stroke-opacity:1"
           d="m 716.87771,294.0052 26.5915,65.20382 -22.58456,-67.38942 z"
           id="path5851"
           inkscape:connector-curvature="0" /><path
           style="fill:#000000;fill-opacity:1;stroke:#000000;stroke-width:1px;stroke-linecap:butt;stroke-linejoin:miter;stroke-opacity:1"
           d="m 655.93841,307.74067 10.67044,-24.29921 4.73547,-1.45707 -12.0871,26.91537 z"
           id="path5853"
           inkscape:connector-curvature="0"
           sodipodi:nodetypes="ccccc" /><path
           style="fill:#000000;fill-opacity:1;stroke:none;stroke-width:1px;stroke-linecap:butt;stroke-linejoin:miter;stroke-opacity:1"
           d="m 655.68083,307.48309 -17.48482,98.71639 -0.72853,9.47094 5.82827,-14.93495 17.12056,-93.25238 z"
           id="path5855"
           inkscape:connector-curvature="0" /><path
           style="fill:#000000;fill-opacity:1;stroke:none;stroke-width:1px;stroke-linecap:butt;stroke-linejoin:miter;stroke-opacity:1"
           d="m 605.41197,379.24371 19.67043,-65.20382 -6.55681,0.36427 -14.57069,67.02515 z"
           id="path5857"
           inkscape:connector-curvature="0" /><path
           style="fill:#000000;fill-opacity:1;stroke:none;stroke-width:1px;stroke-linecap:butt;stroke-linejoin:miter;stroke-opacity:1"
           d="m 642.20295,289.634 c -428.1353,350.91067 -214.06765,175.45533 0,0 z"
           id="path5859"
           inkscape:connector-curvature="0"
           sodipodi:nodetypes="cc" /></g></g><path
       style="fill:#000000;stroke:none;stroke-width:1px;stroke-linecap:butt;stroke-linejoin:miter;stroke-opacity:1;fill-opacity:1"
       d="m 618.52559,314.40416 25.02744,-30.2981 h 10.43182 l -28.90245,29.93383 z"
       id="path6146"
       inkscape:connector-curvature="0" /></g><g
     inkscape:groupmode="layer"
     id="layer5"
     inkscape:label="Vector godzilla"
     style="display:inline"><rect
       style="fill:#000000;fill-opacity:1;stroke:none"
       id="rect5814"
       width="10.19948"
       height="19.670425"
       x="794.46661"
       y="152.30528" /><g
       id="g6051"><g
         id="g5842"><g
           id="g5830"><g
             id="g5820"><path
               style="fill:#000000;fill-opacity:1;stroke:none;stroke-width:1px;stroke-linecap:butt;stroke-linejoin:miter;stroke-opacity:1"
               d="m 681.17953,252.11448 c -2.54987,2.18561 -8.01387,13.47789 -8.01387,13.47789 l 14.93495,-6.19254 1.0928,-5.82828 93.61665,3.27841 1.82134,50.26886 -5.46401,6.92107 -38.24805,45.89766 -0.36426,5.09974 26.22723,41.52646 -2.1856,9.47094 1.15909,-1.0303 c 0.76652,-1.56745 -4.23572,0.68374 -5.50821,1.15529 l -2.57196,1.33208 -26.95577,22.94883 56.46141,-7.28534 13.11361,2.91413 23.3131,-4.00694 -5.46401,-61.19687 11.29228,7.28534 8.74242,5.09974 7.28534,2.91414 c 0,0 7.64961,2.91413 9.47094,2.91413 1.82134,0 11.65655,0.36427 11.65655,0.36427 l 8.01388,1.45707 c 0,0 2.1856,0.72853 2.1856,-1.0928 0,-1.82134 -57.18994,-167.56288 -57.18994,-167.56288 l -80.50303,5.82827 -48.08326,10.19948 -33.87685,-3.64267 -2.91413,6.92108 -15.29922,16.39202 7.64961,9.47094 -0.36427,-9.10668 c 0,0 13.47788,-11.29228 14.93495,-12.02081 1.45707,-0.72854 17.84909,4.3712 17.84909,4.3712 z"
               id="path5806"
               inkscape:connector-curvature="0"
               sodipodi:nodetypes="ccccccccccccccccccccccsccsccccccccccc" /><path
               style="fill:#000000;fill-opacity:1;stroke:none;stroke-width:1px;stroke-linecap:butt;stroke-linejoin:miter;stroke-opacity:1"
               d="m 739.09801,228.07285 19.67042,-37.15525 -34.60538,4.37121 -6.5568,-2.54987 -1.09281,-10.19948 1.82134,1.0928 1.82134,-4.3712 2.91413,2.1856 0.36427,-2.91414 3.2784,0.36427 1.82134,-5.09974 5.46401,4.00694 1.45707,-3.27841 6.92107,0.72854 0.36427,-5.82828 8.01387,-4.73547 -1.82133,-2.54987 -2.54987,5.09974 -3.2784,-7.28534 -2.54987,4.73547 -4.37121,-7.28534 -5.09974,7.28534 -3.64267,-9.47094 -4.00694,4.73547 -1.45707,-5.82828 -5.46401,4.37121 -2.54987,-7.28534 -5.82827,8.37814 0.72853,-10.19948 -8.01387,0.36427 -1.0928,4.3712 -0.36427,-18.21335 37.88378,-4.37121 6.55681,-6.92107 40.43365,4.3712 14.93495,-8.74241 -2.91413,28.7771 23.31309,73.2177 z"
               id="path5808"
               inkscape:connector-curvature="0" /><path
               style="fill:#000000;fill-opacity:1;stroke:none;stroke-width:1px;stroke-linecap:butt;stroke-linejoin:miter;stroke-opacity:1"
               d="m 849.47095,208.40243 -53.183,-59.37555 23.31309,-9.47094 -9.47094,25.13443 35.69818,-16.02775 -7.64961,17.12055 18.94189,-14.57068 -13.11362,32.78404 40.06938,-17.84909 -12.74935,29.8699 18.9419,-7.28534 -2.91414,15.66349 2.91414,14.57068 24.04163,-2.54987 5.09974,33.14831 20.76322,-7.28534 -9.10668,24.4059 13.11362,-5.09974 -1.0928,9.10668 3.64267,12.38508 9.10668,-13.11362 2.54987,-6.19254 3.2784,24.4059 4.37121,8.37814 4.00694,4.00694 4.00694,-0.36427 5.464,-9.47094 h 5.46401 l 6.55681,5.82827 17.48487,61.19688 -26.59155,15.29922 -9.47095,5.09974 -24.77016,11.65655 -13.47788,9.10668 -4.37121,7.64961 -55.73287,-15.66349 -78.31743,-241.87338 v 0 L 907.38942,261.9497 c 0,0 1.0928,-0.72853 0,0"
               id="path5810"
               inkscape:connector-curvature="0" /><rect
               style="fill:#000000;fill-opacity:1;stroke:none"
               id="rect5812"
               width="44.076324"
               height="116.92975"
               x="791.91675"
               y="181.44666" /></g><path
             inkscape:connector-curvature="0"
             id="path5822"
             d="m 872.15841,389.99874 2.44697,27.49302 -0.93433,11.9659 -16.64267,44.49172 1.54546,0.25757 26.68367,-12.01702 9.01829,13.94884 16.39202,-15.66349 14.57069,14.93495 6.55681,-13.47788 12.02081,7.28534 9.83522,0.36427 -16.02776,-17.12056 -7.28534,-45.89765 -22.58456,-52.0902 z"
             style="fill:#000000;fill-opacity:1;stroke:#000000;stroke-width:1px;stroke-linecap:butt;stroke-linejoin:miter;stroke-opacity:1"
             sodipodi:nodetypes="cccccccccccccccc" /></g><path
           style="fill:#000000;fill-opacity:1;stroke:none;stroke-width:1px;stroke-linecap:butt;stroke-linejoin:miter;stroke-opacity:1"
           d="m 991.53513,296.55507 2.54987,-7.28534 5.82827,6.92108 4.73543,-1.82134 2.5499,-17.12056 14.5707,11.29229 2.1856,-2.54987 -0.3643,-7.28535 2.5499,-1.0928 -7.6496,-10.19948 4.3712,-0.36426 18.9419,2.91413 6.9211,-6.55681 5.464,-7.28534 5.464,-10.92801 3.6427,-8.74241 -2.1857,-6.19255 -3.2784,-2.91413 4.7355,-3.64267 2.1856,-6.92108 -0.7285,-9.47094 -3.2784,-7.64961 -1.4571,-3.27841 -9.1067,-0.72853 5.0998,-6.92108 v -4.3712 l -3.6427,-4.37121 -10.1995,2.91414 -0.7285,-11.65655 0.3643,-2.1856 -12.0209,-5.46401 -4.7354,-0.72853 -5.0998,1.82133 -4.7354,-5.82827 20.3989,2.1856 10.5638,4.37121 11.6565,8.01387 9.8352,10.56375 6.9211,9.83521 c 0,0 6.9211,20.03469 7.2853,21.85603 0.3643,1.82134 3.2784,20.03469 3.2784,20.03469 0,0 -0.3642,11.29228 -0.3642,13.47789 0,2.1856 -5.464,23.31309 -5.464,23.31309 l -5.0998,16.02776 -10.5637,17.48482 -9.8352,14.93495 -14.935,16.75629 -12.7493,9.83521 -16.392,10.19948 -43.34784,1.82134 -2.54987,-33.51258 z"
           id="path5832"
           inkscape:connector-curvature="0" /></g><g
         id="g6037"><rect
           style="fill:#000000;fill-opacity:1;stroke:none"
           id="rect6031"
           width="21.491758"
           height="18.941896"
           x="794.46661"
           y="171.97571" /><rect
           style="fill:#000000;fill-opacity:1;stroke:none"
           id="rect6033"
           width="65.93235"
           height="7.2853427"
           x="742.01215"
           y="223.70164" /></g></g></g><g
     inkscape:groupmode="layer"
     id="layer11"
     inkscape:label="Vector ufo 1"><path
       style="fill:#cccccc;stroke:none;stroke-width:1px;stroke-linecap:butt;stroke-linejoin:miter;stroke-opacity:1"
       d="M 289,425 C 432.21212,192.66667 432.21212,192.15151 432.21212,192.15151 l 32.45455,9.27273 -72.12122,244.69697 -102,0.51515 z"
       id="path6106"
       inkscape:connector-curvature="0" /></g><g
     inkscape:groupmode="layer"
     id="layer10"
     inkscape:label="Vector ufo"><ellipse
       style="fill:#000000;fill-opacity:1;stroke:none;stroke-width:1.01106417"
       id="path6071"
       cx="488.95392"
       cy="48.630707"
       rx="57.954544"
       ry="20.09091"
       transform="rotate(16.3)" /><ellipse
       style="fill:#000000;fill-opacity:1;stroke:none;stroke-width:0.4458473"
       id="path6071-3"
       cx="349.11661"
       cy="208.40584"
       rx="17.865482"
       ry="12.673226"
       transform="matrix(0.99943278,-0.03367656,0.52697091,0.84988332,0,0)" /><ellipse
       style="fill:#b3b3b3;fill-opacity:1;stroke:none;stroke-width:0.4458473"
       id="path6071-3-6"
       cx="319.42712"
       cy="246.62878"
       rx="17.865482"
       ry="12.673226"
       transform="matrix(0.99943278,-0.03367656,0.52697091,0.84988332,0,0)" /></g><g
     inkscape:groupmode="layer"
     id="layer9"
     inkscape:label="Vector robots 1"><path
       style="fill:#e6e6e6;stroke:none;stroke-width:1px;stroke-linecap:butt;stroke-linejoin:miter;stroke-opacity:1"
       d="m 246.75758,444.57576 -18.03031,-17 12.36364,3.60606 -13.90909,-18.03031 19.0606,5.66667 -11.33333,-14.93939 47.39394,25.24242 -2.06061,-11.84848 L 289,425 l -8.24242,-21.63636 11.84848,13.39394 3.60606,-3.60607 4.12121,13.39394 146.81819,-86.0303 8.18239,0.84478 -103.48542,105.27643 1.0303,5.15152 -19.57576,-4.63637 -37.09091,4.12122 z"
       id="path6064"
       inkscape:connector-curvature="0" /></g><g
     inkscape:groupmode="layer"
     id="layer7"
     inkscape:label="Vector robots"
     style="display:inline"><path
       style="fill:#000000;fill-opacity:1;stroke:none;stroke-width:1px;stroke-linecap:butt;stroke-linejoin:miter;stroke-opacity:1"
       d="m 687.00781,325.33218 16.39202,-8.74242 6.55681,19.30616 30.59844,4.37121 5.82827,-7.28534 4.73547,2.54987 -4.73547,6.5568 4.00694,6.19255 -2.91414,4.73547 -4.00694,-5.82828 -15.66348,0.36427 0.72853,25.86297 13.47788,53.91153 -11.29228,2.18561 -8.01387,-36.42672 -6.19255,-16.02775 -7.28534,57.91847 -14.93495,-0.72853 8.74241,-56.46141 -8.37814,-24.04163 -14.57069,11.65655 1.0928,7.64961 -4.73547,0.72853 -1.0928,-6.92107 -12.02082,-2.1856 0.72854,-3.64268 10.19948,0.36427 17.84909,-18.94189 z"
       id="path6054"
       inkscape:connector-curvature="0" /><path
       style="fill:#000000;fill-opacity:1;stroke:#000000;stroke-width:1px;stroke-linecap:butt;stroke-linejoin:miter;stroke-opacity:1"
       d="m 578.09194,322.78231 -2.91414,20.76322 -35.33391,-1.0928 -6.92108,-5.09974 -4.3712,6.19254 8.01387,7.28535 -5.464,7.28534 7.28534,1.0928 3.2784,-8.74241 34.60538,2.54987 -2.1856,22.58456 -10.92802,59.37554 14.93496,-0.72853 4.00693,-49.17606 12.74935,1.45706 1.82134,48.44753 17.48482,0.72854 -13.47788,-79.41024 38.61231,-7.28534 3.27841,2.91414 6.92107,-2.54987 -6.55681,-5.46401 4.00694,-10.19948 -4.00694,-0.36427 -6.5568,9.10668 -36.42672,0.72854 -1.0928,-21.49177 z"
       id="path6056"
       inkscape:connector-curvature="0" /><path
       style="fill:#000000;fill-opacity:1;stroke:#000000;stroke-width:1px;stroke-linecap:butt;stroke-linejoin:miter;stroke-opacity:1"
       d="m 433.84215,336.62446 2.54987,5.09974 18.94189,-0.36427 -15.66348,10.56375 -0.72854,4.3712 -5.82827,1.0928 -25.86297,44.44059 12.02082,0.72854 0.72853,-8.74241 7.28534,12.74935 5.09974,-8.74242 -4.3712,-5.464 14.20642,-25.13443 13.11361,17.84909 -14.57068,57.18993 17.12055,1.09281 6.92108,-49.54033 12.38508,-0.72854 25.4987,52.0902 14.20642,-5.46401 -24.4059,-48.81179 -3.2784,-9.83521 -10.92802,-21.49176 32.05551,-0.36427 4.3712,7.64961 6.92108,-2.54987 -5.09974,-8.37815 5.09974,-3.2784 v -8.74241 l -9.10668,6.55681 -47.71899,-6.19254 -10.56375,-14.93496 z"
       id="path6058"
       inkscape:connector-curvature="0" /></g><g
     inkscape:groupmode="layer"
     id="layer2"
     inkscape:label="Vector sky"
     style="display:inline"><path
       style="fill:#000000;fill-opacity:1;stroke:none;stroke-width:1px;stroke-linecap:butt;stroke-linejoin:miter;stroke-opacity:1"
       d="m 383.27273,0 12.36363,53.575758 -30.90909,35.030303 32.9697,17.515149 -14.42424,44.30303 L 576.9697,79.333333 568.72727,158.66667 775.81818,52.545455 774.78788,95.818182 953.0303,63.878788 921.09091,143.21212 1102.4242,79.333333 1070.4848,172.06061 1105.5152,170 1086.9697,312.18182 v 11.33333 l 36.0606,20.60606 L 1122.56,2.04e-5 Z"
       id="path5756"
       inkscape:connector-curvature="0" /></g></svg>