<?xml version="1.0" encoding="UTF-8"?>
<svg width="795px" height="133px" viewBox="0 0 795 133" version="1.1" xmlns="http://www.w3.org/2000/svg" xmlns:xlink="http://www.w3.org/1999/xlink">
    <!-- Generator: Sketch 57 (83077) - https://sketch.com -->
    <title>Group 12</title>
    <desc>Created with Sketch.</desc>
    <defs>
        <path d="M574.590746,9.84063011 L584.266904,12.7769542 C584.478542,14.8378883 584.685934,16.5941732 584.677886,16.9342699 C584.614559,19.6148668 585.639726,22.2627921 585.47636,24.9152976 C585.366531,26.6978838 585.263739,28.4929891 585.17655,30.285957 C584.884694,32.0706806 584.677886,33.8700607 584.25234,35.6398226 C583.984347,36.7552367 583.722778,37.5051565 583.812109,38.679807 C583.820675,38.7930888 584.352073,40.5631561 584.34779,40.5665148 C583.547787,41.1689545 583.123464,42.2385673 582.44002,42.9799375 C581.428009,44.0773365 580.718866,45.1026747 580.0446,46.4245 C579.567352,47.3588463 578.505474,48.0156368 577.794497,48.8058618 C577.594725,48.102354 577.263405,47.430907 576.649406,47.370144 C576.559769,47.3618997 576.484817,47.3915179 576.42149,47.443426 C575.995943,45.6187026 575.178196,43.823292 574.75418,42.0648277 C574.739495,42.0031487 574.711044,41.9585687 574.676474,41.921317 C574.869209,39.365605 574.880222,36.8098929 574.857583,34.2047155 C574.840146,32.1732755 574.963435,30.214507 575.108139,28.1787922 C575.239382,26.3320842 574.282132,24.8331606 574.409398,22.9980555 C575.007182,23.393168 575.901411,23.7201892 576.393956,23.8948448 C576.627074,23.9775925 576.909751,23.7116396 576.816443,23.4731676 C576.517857,22.7116448 576.237015,21.9495113 575.877855,21.2145532 C575.995943,21.4566894 576.516327,21.6096657 577.191817,21.6401999 C577.424323,21.6505815 577.605127,21.3565372 577.468683,21.1586757 C576.875487,20.2997488 575.912119,19.7424997 575.285577,18.9144124 C574.608558,18.0197605 576.145236,16.4567151 575.798007,15.2652708 C575.65055,14.7602353 575.123741,13.6826835 575.757625,13.3431433 C575.963821,13.2329149 576.148907,12.9617712 576.261795,12.7718485 C576.465849,12.4280335 576.843365,12.0109364 576.45453,11.6228468 C575.961067,11.1303303 574.621407,11.7193349 574.627219,10.7428513 C574.628971,10.445375 574.615555,10.144054 574.590746,9.84063011 Z M585.563385,13.1690724 L587.009767,13.6082968 C587.254135,14.4367165 587.487404,15.2693525 587.630278,16.129349 C587.836495,17.3709719 588.136568,18.7853613 587.931144,20.0536592 C587.678659,21.6125892 587.445475,23.1318171 587.351091,24.7195933 C587.330469,25.0623346 586.914861,25.1119623 586.88525,24.7506106 L586.883928,24.7267273 C586.87018,24.7019134 586.856697,24.6774097 586.84903,24.6436009 C586.58412,23.4754889 586.631444,22.2155658 586.552394,21.0158162 C586.454308,19.5232632 586.233814,18.0921244 586.024952,16.6197327 C585.863142,15.4747925 585.70899,14.3231143 585.563385,13.1690724 Z M539.091752,110.040466 L539.122,110.021775 C539.090411,110.033763 539.065698,110.048955 539.046377,110.068963 L539.027,110.093775 L539.091752,110.040466 L539.091752,110.040466 Z M539.046212,111.011649 C539.28606,111.526761 539.642466,111.779584 540.185183,111.827217 C539.654092,112.665992 538.568046,113.593926 538.195119,113.849497 C538.12812,113.895298 538.152289,113.998809 538.236725,114.002168 C538.8495,114.026901 539.204989,113.519117 539.624722,113.121256 C540.004074,112.761869 540.381283,112.302329 540.644994,111.81195 C541.411039,111.681264 542.178919,111.086458 542.612114,110.376843 C542.955059,110.591804 543.300759,110.759436 543.630855,110.833635 C543.435367,111.624776 542.961178,112.395153 542.603242,113.058051 C542.041863,114.09774 541.375245,115.044605 540.559028,115.900784 C540.515892,115.945975 540.573101,116.028722 540.627556,115.989944 C541.741747,115.199414 542.37196,114.019878 542.998807,112.836067 C543.306571,112.254696 543.647987,111.559127 543.782902,110.858062 C543.818695,110.862642 543.855713,110.873024 543.890895,110.875161 C544.048142,110.884627 544.208448,110.887375 544.367225,110.894703 C544.389864,111.051649 544.40516,111.209205 544.427187,111.349968 C544.492044,111.763706 544.631853,112.119124 544.802867,112.495916 C545.137553,113.233317 545.644782,113.648887 546.368303,113.980183 C546.450598,114.01774 546.511172,113.913008 546.438973,113.860184 C545.651513,113.284614 545.052505,112.720037 544.751471,111.762179 C544.669176,111.500196 544.630935,111.193327 544.560878,110.902642 C546.084401,110.964321 547.652591,110.94081 549.153476,110.775009 C550.820174,110.590888 552.501862,110.1286 554.07617,109.556695 C554.723209,109.321887 556.082143,108.171969 556.414381,107.934413 C556.543789,107.841894 557.427616,107.230905 557.658592,107.057165 C557.791059,107.157928 558.025706,107.135333 558.064865,106.936861 C558.211405,106.191826 558.331941,106.034575 557.721002,105.424197 C556.705319,104.410767 556.332087,104.640995 557.88865,103.825732 C557.962379,103.787259 558.028766,103.685274 558.018976,103.600084 C557.822264,101.957955 555.742562,102.063603 558.607888,101.336889 C559.207202,101.184829 558.478786,99.0547638 558.632668,99.1387328 C559.146016,99.4184261 560.802313,99.8498742 561.211033,99.1543053 C561.351455,98.9149172 561.240402,98.137822 561.240097,98.0129371 C561.240402,98.339653 562.233446,98.8666732 562.521325,99.0248403 C562.650427,99.095985 562.796049,99.0294204 562.84255,98.8944593 C563.599723,96.6898905 562.678572,94.3491391 561.246521,92.4853319 C561.277114,92.4340345 561.304036,92.3778516 561.327592,92.3170885 C561.533788,91.7809081 561.543272,91.39862 561.543272,90.8141955 C561.543272,89.365348 561.586408,88.5137493 562.206219,87.1537563 C562.550388,86.3977296 562.277806,85.8117784 561.68614,85.3287275 C560.025561,83.9730093 560.892562,82.9394268 561.087744,81.1809626 C561.092639,81.1379093 561.023499,81.1302758 561.013404,81.1708863 C560.660056,82.5882836 559.762156,83.6041562 560.826481,84.8392644 C561.640251,85.7824656 562.769739,85.4911694 561.715815,87.805356 C561.597115,88.0658127 561.449352,88.5855046 561.343806,88.8792436 C561.06174,89.6642777 561.691647,91.4618257 561.143117,92.3558669 C560.545639,91.5998403 559.868619,90.9241186 559.187929,90.3769458 C559.99405,89.9390855 560.273057,89.0410748 560.383191,87.984897 C560.408583,87.7397075 560.245217,87.3800147 560.002616,87.0813902 C560.620591,86.0777313 559.617452,84.61209 558.849266,83.9159103 C558.818673,83.8887349 558.762382,83.9265973 558.78961,83.962017 C559.133473,84.4065948 559.476113,84.8478139 559.769499,85.3284222 C560.091641,85.9378847 560.104796,86.4557446 559.823648,86.8850554 C559.488962,86.5674998 559.072288,86.4035311 558.768501,86.718644 C558.190602,87.3183356 558.826627,88.017874 559.535769,87.5534489 C559.713514,87.4371136 559.850264,87.3061219 559.952444,87.1653593 C560.0895,87.285664 560.183726,87.5528382 560.23145,87.984897 C560.313133,88.903671 559.84231,89.8196968 559.087584,90.3006103 C558.967966,90.2068704 558.84896,90.1131304 558.729648,90.0273293 C558.261271,89.6896211 557.746394,89.3201574 557.215914,88.9317624 C557.516947,88.0603165 557.532244,87.0160471 557.50777,86.2334557 C557.493085,85.7659772 557.360618,85.1876595 556.918857,84.9290349 C554.888716,83.7421708 556.110594,82.2899645 556.447422,80.5898206 C556.4618,80.5177599 556.362068,80.4905844 556.337899,80.5595917 C555.903787,81.7821808 555.128258,82.9443123 555.765201,84.2633895 C555.960383,84.6673568 556.141493,84.9052182 556.592432,85.0465915 C557.739969,85.4062843 557.613927,87.3412362 557.024403,88.7903891 C555.614378,87.7525318 554.122977,86.5910111 553.115861,85.5097953 C551.866143,84.1684281 550.740021,82.7727101 550.901551,80.8142469 C550.921742,79.9269232 551.180252,79.1669271 551.677079,78.5330372 C551.759986,78.4148699 551.937119,78.156856 552.112721,77.9012848 C554.319383,76.6044975 556.081531,77.1519756 558.500201,77.1538077 C559.097068,77.154113 559.794585,77.0160985 560.315887,76.7113672 C562.227634,75.5935104 563.669168,74.9458801 566.011663,76.0979352 C566.680728,76.4270939 569.341082,76.7519777 570.11141,76.3391554 C571.116385,76.4270939 572.163578,76.3431248 572.92075,75.8643487 C577.158165,73.1849731 580.170031,69.2805657 583.236046,65.3703568 C584.42519,63.8558608 586.633075,62.4616695 587.456635,60.7087014 C588.554612,58.3731409 590.260775,57.3584896 592.13428,55.7813985 C592.289998,55.6507121 592.341088,55.3481182 592.103688,55.2562103 C591.878524,55.1682718 591.648772,55.0592648 591.397605,55.0745319 C589.883871,55.1688825 588.744899,55.280027 591.161428,53.4531661 C591.342232,53.3157623 591.26269,53.0757635 591.106667,53.0067562 C591.605942,52.5414151 592.103688,52.0858449 592.44388,51.615313 C593.661475,49.9295201 594.407635,47.9560952 595.297581,46.0849597 C596.065155,44.4715329 595.608098,41.8358213 594.455054,40.2339975 C594.321057,39.8471292 594.117003,39.4617877 593.909277,39.095072 C593.63333,36.4825664 593.881744,33.7879237 593.731533,31.1332809 C593.657804,29.8224479 593.131607,28.4945158 593.056043,27.1684158 C592.960287,25.4661344 592.806711,23.794082 592.499865,22.1174493 C592.037595,19.5845346 591.469129,17.1931086 590.732149,14.7377948 L636.278328,28.5555577 L691,75 L731,57.4444488 L749.5,99.6666667 L794.976,132.999775 L0,133 L0,9.07877454 L46.7179255,0.777774542 L355.254534,6.33333549 L490.853432,29.6666656 L550.946704,5.98653747 C551.183882,6.36696021 551.429371,6.74120018 551.680139,7.10683948 C551.62966,7.19355659 551.588054,7.28149507 551.53054,7.36790684 C551.017804,8.13553648 550.128775,8.50469489 549.667435,9.29064505 C549.549959,9.49217073 549.493056,9.8610238 549.569538,10.0634655 C549.988048,11.1764369 549.605944,12.2475764 549.912178,13.3590211 C550.099406,14.0390176 551.018415,15.1809965 550.918377,15.7822147 C550.795394,16.5153407 550.638758,17.4316719 550.880748,18.1562483 C551.05115,18.6664747 551.842587,19.2151742 552.619951,19.6792939 C552.54714,20.4814272 552.671959,21.264324 552.669205,22.0728694 C552.665228,23.4252289 551.347594,23.7412578 550.839753,24.7232375 C550.789581,24.8200309 550.796005,24.9400303 550.877994,25.0191138 C551.314248,25.439875 552.164423,25.0337702 552.799225,24.6456806 C552.604043,25.0536175 552.450772,25.4557528 552.440065,25.957735 C552.271498,26.0725435 552.077846,26.1333066 551.987597,26.3314735 C551.953333,26.4071983 551.994939,26.4826178 552.078763,26.489946 C552.361135,26.5146787 552.446183,26.5620067 552.72519,26.4200227 C553.071807,26.2441457 553.294217,25.9516281 553.587297,25.7116293 C553.642976,25.6661334 553.693454,25.6026223 553.740873,25.5357524 C554.133685,26.372084 554.600837,27.1830722 554.912579,28.041999 C555.429904,29.4673352 554.133685,30.9064118 553.649094,32.1485428 C553.32328,32.9833477 552.702551,34.1491432 553.387525,34.9931084 C554.297051,36.1140186 554.137356,37.652026 554.529556,39.0434692 C553.804506,39.2877428 553.038461,39.3335441 552.405801,39.817511 C551.347594,40.6275832 550.006098,40.9579632 549.035081,41.9433016 C547.904676,43.0895553 546.96364,44.3866479 545.963254,45.6446567 C544.189481,47.8767063 542.558576,50.0122678 541.280713,52.5673692 C541.14794,52.8336273 541.055244,53.2314879 541.005989,53.6803406 C540.796734,53.8782021 540.605529,54.1182009 540.39505,54.2714826 C539.85631,54.6635416 539.321853,55.163081 538.952904,55.7181927 C538.570493,56.2940676 538.196037,56.8714692 537.732249,57.3691766 C537.577755,57.5352826 537.413166,57.7050527 537.288653,57.8965021 C536.464176,57.5929922 535.549756,57.7474952 534.659504,57.5838319 C533.330551,57.3395584 532.090011,57.123987 530.722817,57.1102466 C530.210692,57.1053611 529.272716,56.9065835 528.836156,57.2922304 C527.391868,58.5703918 525.249451,57.2800167 523.921721,56.6201728 C523.75805,56.5392572 523.529215,56.6351345 523.538393,56.8397136 C523.56715,57.491008 523.788948,58.0836767 523.8587,58.7484061 C521.224962,58.1862716 518.307628,58.3716141 515.693776,58.2430652 C513.794572,58.1496306 511.857739,58.9184816 510.084272,59.4748146 C509.039832,59.8024465 507.762581,60.3111462 506.557835,60.6164881 C506.240587,60.44855 505.932517,60.21191 505.761503,60.0906893 C505.262228,59.7355766 504.560734,59.6039742 504.015569,59.3453496 C503.492126,59.0968013 502.514684,58.8051997 501.908946,58.9062679 C500.6268,59.1197019 500.647297,61.605796 500.553989,63.0173918 C497.52958,65.0378394 494.327733,66.713556 491.851854,69.5098775 C490.171389,71.406967 488.520294,73.2252783 487.061015,75.3183973 C486.365028,76.3168654 485.732062,77.4411344 485.02965,78.5134954 C484.235766,78.7186851 484.412592,78.618533 483.794005,79.2518122 C482.146275,80.9382157 481.576942,79.7009702 480.147338,79.7018862 C478.688059,79.7031076 477.350234,78.985554 475.827628,78.9867754 C473.943415,78.9886074 472.258055,80.1620365 470.337743,79.9168469 C468.752421,79.7144052 467.792112,77.5046456 466.288168,77.3538067 C464.086401,77.1330444 464.000435,78.3452519 465.370077,79.8380687 C466.375969,80.934857 467.553488,81.9302717 469.041218,82.0261491 C469.816746,82.0762251 470.418508,82.4667575 471.147841,82.3907273 C471.95488,82.3067583 472.128036,83.7018656 472.146392,84.3101068 C471.213922,84.9012488 470.228526,85.2923918 469.209478,85.7940686 C464.947283,87.8926838 465.650613,86.5913164 463.742537,85.5305585 C462.383909,84.7757532 461.945514,83.6065989 460.502755,83.3751498 C459.574262,83.2261429 459.506652,82.6798861 458.793227,82.5644669 C458.600798,82.5330167 458.391237,82.7238554 458.519421,82.9198849 C459.254261,84.047818 460.215182,85.0600266 461.156218,86.0227697 C461.654881,86.5333015 462.849226,88.8877932 463.794239,89.0490137 C465.232103,89.2945086 466.824154,89.1964939 468.31525,88.7903891 C467.577044,89.778781 467.663316,91.0596904 466.582471,91.8221292 C465.205793,92.793422 463.265901,91.8089995 461.761345,91.1601479 C460.363558,90.5567922 458.338617,90.6102271 456.80408,91.1867127 C456.664883,91.2386208 456.010808,90.394961 456.001936,90.5461053 C455.875893,92.7683839 461.941231,94.4462379 463.673397,94.8199764 C465.410459,95.1949363 466.610616,95.0202807 468.248557,94.2706663 C468.453835,94.1766209 468.704697,94.0437972 468.95311,93.8856301 C469.769022,94.3766199 471.245738,95.5677588 472.219508,95.3979887 C473.873969,95.1100513 475.2843,93.6566236 476.683922,92.784567 C477.72928,92.1332727 480.19078,90.8273252 481.312314,89.3226001 C481.809753,89.521683 482.54337,89.8419867 482.89427,89.5030572 C484.098404,88.3400097 484.993857,87.4368083 485.82384,85.9424648 C486.893366,84.0185052 486.927324,81.8786689 488.592187,80.2023416 C490.455291,78.3260154 492.381111,76.9693811 494.674044,75.6524414 C496.078562,74.846644 497.164608,73.71352 498.752682,73.2845146 C500.460681,72.8234483 501.572425,72.3666567 503.042411,71.3394864 C504.759281,70.1401033 505.626283,68.4778217 506.805637,66.747449 C506.858868,66.6692814 506.941775,66.5682132 507.038754,66.452794 C507.532217,66.5859231 508.182315,66.4027179 508.674554,66.4216491 C510.674102,66.499206 512.696595,66.5443966 514.704097,66.5443966 C516.635424,66.5443966 518.552983,66.9755394 520.487063,66.9892798 C522.143053,67.0005774 523.924781,66.7092812 525.606469,66.5624117 C525.496335,66.808212 525.25251,67.06989 524.804937,67.3480566 C524.493502,67.5416433 524.702451,67.9865266 525.046314,67.9196567 C525.909338,67.7517186 527.635999,66.4418017 527.910416,67.6711083 C528.034011,68.2277467 528.583153,68.2304948 529.016042,68.2921738 C529.824305,68.4075931 530.691306,68.0671368 531.487332,68.0005723 C532.729401,67.8970614 534.32696,70.6353679 535.159391,71.3407078 C535.727194,71.8216213 536.844751,71.5727677 537.47221,71.4970429 C538.764146,71.3410131 539.483383,71.4237608 540.54006,72.3254356 C541.622129,73.2490949 542.882248,73.8823741 544.216708,74.3342802 C544.088218,74.5327525 543.872845,74.6090879 543.543972,74.9364145 C543.193378,75.2848097 542.479341,75.6338155 542.051653,75.8463335 C541.639873,76.0512179 541.334556,76.4215977 541.435819,76.9226638 C541.568898,77.5760956 541.697388,78.2237258 541.821289,78.8722721 C538.62709,79.3476895 536.012013,75.4374806 532.912652,76.6365584 C532.057276,76.9678544 531.364043,77.5724315 531.297656,78.5418922 C531.222704,79.6359323 532.03525,80.3861575 532.105613,81.3644731 C531.515477,81.8292035 530.838763,82.1495072 530.613294,82.9769839 C530.425148,83.6643086 530.634097,84.8154477 531.358536,85.1748352 C531.910737,85.4487269 532.621103,85.2554454 533.187376,85.0878127 C533.331774,85.0450648 533.67472,84.8777374 533.791585,84.6795705 C534.313499,84.4395718 534.846732,84.1333138 535.377824,83.9000325 C535.387308,83.975452 535.395568,84.0511768 535.407805,84.1235429 C535.465319,84.4664419 535.545473,84.803234 535.600846,85.1455223 C535.695377,85.7323895 536.125513,85.511322 536.577369,85.5168181 C537.109991,85.523841 537.211253,85.323842 537.194733,84.8356003 C537.184331,84.5439987 537.138442,84.248733 537.057677,83.9693452 C537.019742,83.8380481 536.999244,83.7055297 536.981195,83.5733167 C537.414695,83.630721 537.836571,83.8423229 538.237337,84.3039999 C539.415773,85.6615502 538.353896,87.9467293 536.537904,87.7555853 C535.517939,87.6477995 534.879466,87.1928401 533.927723,87.2832213 C533.896212,87.2532978 533.856136,87.2313131 533.813918,87.2325345 C533.756403,87.2340612 533.716326,87.2398627 533.681451,87.2496337 C533.62363,87.2465802 533.564892,87.2694809 533.539194,87.3250531 C533.367874,87.6957382 532.848101,87.6209295 532.593569,87.8694778 C532.212994,88.2410789 532.333224,88.645657 532.340566,89.151914 C532.345767,89.4795459 532.466915,89.790384 532.767642,89.9687036 C532.932844,90.0667184 533.097739,90.1396951 533.275483,90.2102291 C533.408256,90.2627479 533.725198,90.4877849 533.958316,90.7403027 C533.896212,90.9149583 533.819118,91.0813697 533.762216,91.259384 L533.739271,91.2773992 C533.403056,91.7247252 533.014832,91.9647239 532.64833,92.3522028 C532.561141,92.4447215 532.536666,92.5854841 532.603665,92.6978499 C532.859727,93.124718 533.403056,93.374793 533.634643,93.7793711 C534.345927,95.0221128 533.760074,96.2425645 533.22011,97.3515665 C533.126802,97.5439319 533.23816,97.785152 533.469748,97.785152 C538.31902,97.7879001 532.209017,101.45811 534.314722,102.782684 C536.897982,104.407103 538.250492,107.208615 540.748398,108.978682 C541.202701,109.301123 541.818841,109.848296 542.459455,110.274248 C542.141902,110.719437 541.659452,111.057145 541.183122,111.322487 C541.061974,111.389968 540.932261,111.444013 540.801017,111.48615 C540.843847,111.383555 540.881782,111.28035 540.911151,111.177144 C541.115606,110.461799 539.780006,109.702744 539.164744,109.99799 L539.122,110.021775 L539.165534,110.009457 C539.263657,109.988818 539.393571,110.003598 539.521803,110.03793 C540.059308,110.181427 540.086569,110.560617 539.882713,111 C539.611548,110.99873 539.349791,110.884948 539.15269,110.577888 C538.999908,110.340074 538.973928,110.190064 539.021594,110.102662 L539.027244,110.094402 C538.836345,110.28463 538.949844,110.804932 539.046212,111.011649 Z" id="path-1"></path>
    </defs>
    <g id="Page-1" stroke="none" stroke-width="1" fill="none" fill-rule="evenodd">
        <g id="Group-12">
            <mask id="mask-2" fill="white">
                <use xlink:href="#path-1"></use>
            </mask>
            <use id="Combined-Shape" fill="#FFCC00" xlink:href="#path-1"></use>
        </g>
    </g>
</svg>