<?xml version="1.0" encoding="UTF-8"?>
<svg width="120px" height="117px" viewBox="0 0 120 117" version="1.1" xmlns="http://www.w3.org/2000/svg" xmlns:xlink="http://www.w3.org/1999/xlink">
    <!-- Generator: Sketch 57 (83077) - https://sketch.com -->
    <title>Group</title>
    <desc>Created with Sketch.</desc>
    <g id="Page-1" stroke="none" stroke-width="1" fill="none" fill-rule="evenodd">
        <g id="Desktop-HD-Copy" transform="translate(-852.000000, -2947.000000)" fill="#000000">
            <g id="Group" transform="translate(852.000000, 2947.000000)">
                <path d="M59.8889256,-1.42108547e-14 C26.8175207,-1.42108547e-14 0,26.8115702 0,59.8879339 C0,86.3484298 17.16,108.797355 40.9557025,116.716364 C43.9487603,117.270744 45.0476033,115.41719 45.0476033,113.835372 C45.0476033,112.407273 44.9920661,107.689587 44.966281,102.685289 C28.305124,106.308099 24.7894215,95.6191736 24.7894215,95.6191736 C22.065124,88.6968595 18.1398347,86.8561983 18.1398347,86.8561983 C12.7061157,83.1391736 18.5494215,83.2155372 18.5494215,83.2155372 C24.5633058,83.6370248 27.7299174,89.3871074 27.7299174,89.3871074 C33.071405,98.5428099 41.7401653,95.8958678 45.157686,94.3656198 C45.6952066,90.4958678 47.2472727,87.8519008 48.96,86.3573554 C35.6578512,84.8429752 21.6743802,79.7077686 21.6743802,56.76 C21.6743802,50.2214876 24.0138843,44.8790083 27.8449587,40.6849587 C27.2231405,39.1755372 25.1732231,33.0852893 28.425124,24.8360331 C28.425124,24.8360331 33.4542149,23.2264463 44.898843,30.974876 C49.6760331,29.6479339 54.7993388,28.9824793 59.8889256,28.9596694 C64.9785124,28.9824793 70.1057851,29.6479339 74.8919008,30.974876 C86.3226446,23.2264463 91.3447934,24.8360331 91.3447934,24.8360331 C94.6046281,33.0852893 92.553719,39.1755372 91.9319008,40.6849587 C95.7719008,44.8790083 98.0955372,50.2214876 98.0955372,56.76 C98.0955372,79.762314 84.0852893,84.8271074 70.7494215,86.3097521 C72.8975207,88.1682645 74.8115702,91.8128926 74.8115702,97.4003306 C74.8115702,105.412562 74.7421488,111.861818 74.7421488,113.835372 C74.7421488,115.429091 75.8201653,117.296529 78.8558678,116.70843 C102.638678,108.780496 119.77686,86.3395041 119.77686,59.8879339 C119.77686,26.8115702 92.9633058,-1.42108547e-14 59.8889256,-1.42108547e-14" id="Fill-52"></path>
                <path d="M22.6829752,85.9864463 C22.5510744,86.2849587 22.0829752,86.3732231 21.6565289,86.1689256 C21.2221488,85.9735537 20.9781818,85.5679339 21.1190083,85.2694215 C21.2479339,84.9629752 21.7170248,84.8786777 22.1504132,85.0819835 C22.5857851,85.2783471 22.833719,85.6879339 22.6829752,85.9864463" id="Fill-53"></path>
                <path d="M25.1087603,88.6919008 C24.8231405,88.9566942 24.2647934,88.833719 23.8859504,88.4152066 C23.4942149,87.997686 23.4208264,87.4393388 23.7104132,87.1705785 C24.0049587,86.9057851 24.5464463,87.0297521 24.9391736,87.4472727 C25.3309091,87.8697521 25.4072727,88.4241322 25.1087603,88.6919008" id="Fill-54"></path>
                <path d="M27.4700826,92.141157 C27.1031405,92.3960331 26.5031405,92.1570248 26.1322314,91.6244628 C25.7652893,91.0919008 25.7652893,90.4532231 26.1401653,90.1973554 C26.5120661,89.9414876 27.1031405,90.1715702 27.4790083,90.7001653 C27.8449587,91.2406612 27.8449587,91.8803306 27.4700826,92.141157" id="Fill-55"></path>
                <path d="M30.705124,95.4733884 C30.3768595,95.8353719 29.677686,95.7381818 29.1659504,95.2442975 C28.642314,94.7613223 28.4965289,94.0760331 28.8257851,93.7140496 C29.1580165,93.3510744 29.861157,93.4532231 30.3768595,93.9431405 C30.8965289,94.425124 31.0552066,95.1153719 30.705124,95.4733884" id="Fill-56"></path>
                <path d="M35.1679339,97.4082645 C35.0231405,97.8773554 34.3497521,98.0905785 33.671405,97.8912397 C32.9940496,97.6859504 32.5507438,97.1365289 32.6876033,96.6624793 C32.8284298,96.1904132 33.5047934,95.9682645 34.1880992,96.1814876 C34.8644628,96.3857851 35.3087603,96.9312397 35.1679339,97.4082645" id="Fill-57"></path>
                <path d="M40.0690909,97.7672727 C40.0859504,98.261157 39.5107438,98.6707438 38.7986777,98.6786777 C38.0826446,98.6955372 37.5034711,98.2958678 37.4955372,97.8099174 C37.4955372,97.3110744 38.0578512,96.9054545 38.7738843,96.8935537 C39.4859504,96.8796694 40.0690909,97.2763636 40.0690909,97.7672727" id="Fill-58"></path>
                <path d="M44.6300826,96.9907438 C44.7153719,97.4727273 44.2204959,97.9676033 43.5133884,98.0985124 C42.8181818,98.2264463 42.1745455,97.9289256 42.086281,97.4509091 C42,96.9570248 42.5038017,96.4621488 43.1980165,96.3342149 C43.9061157,96.2112397 44.5398347,96.5008264 44.6300826,96.9907438" id="Fill-59"></path>
            </g>
        </g>
    </g>
</svg>