<?xml version="1.0" encoding="UTF-8"?>
<svg width="170px" height="262px" viewBox="0 0 170 262" version="1.1" xmlns="http://www.w3.org/2000/svg" xmlns:xlink="http://www.w3.org/1999/xlink">
    <!-- Generator: Sketch 57 (83077) - https://sketch.com -->
    <title>Fill 1</title>
    <desc>Created with Sketch.</desc>
    <g id="Page-1" stroke="none" stroke-width="1" fill="none" fill-rule="evenodd">
        <g id="Desktop-HD-Copy" transform="translate(-1000.000000, -2231.000000)" fill="#000000">
            <path d="M1133.85983,2456.42138 C1133.85983,2456.42138 1123.96641,2406.59323 1126.35341,2403.80061 C1128.74188,2401.00946 1123.87969,2391.34541 1128.60519,2389.8566 C1133.33069,2388.36779 1140.31678,2377.7714 1142.70378,2374.97731 C1145.09079,2372.18469 1149.51644,2366.91513 1152.40906,2365.79926 C1155.30022,2364.68338 1154.51386,2352.0931 1166.7105,2344.06322 C1166.7105,2344.06322 1170.9098,2335.91881 1169.81918,2331.53754 C1168.72857,2327.15921 1165.76393,2327.35595 1165.76393,2327.35595 C1165.76393,2327.35595 1157.82832,2316.48206 1158.5015,2310.84837 C1159.17468,2305.21468 1162.67141,2302.33396 1157.82979,2302.34277 C1152.98818,2302.35158 1142.85518,2306.12793 1140.67248,2311.50908 C1140.67248,2311.50908 1148.02015,2296.04543 1154.24488,2289.9742 C1154.24488,2289.9742 1154.66672,2290.59527 1154.37863,2286.94078 C1154.09055,2283.28777 1154.06262,2268.77701 1158.89395,2263.93177 C1158.89395,2263.93177 1161.10604,2258.91915 1155.32079,2256.39963 C1155.32079,2256.39963 1143.65035,2245.41121 1142.44216,2239.55288 C1141.23543,2233.69454 1128.8139,2232.06772 1128.74629,2240.63204 C1128.67721,2249.1949 1128.14954,2256.67859 1133.48796,2262.95538 C1133.48796,2262.95538 1133.58497,2268.90181 1135.8147,2273.56352 C1135.8147,2273.56352 1134.49038,2280.36741 1132.72659,2281.6213 C1132.72659,2281.6213 1127.92025,2282.0882 1125.87425,2293.92527 C1125.87425,2293.92527 1119.88763,2300.86718 1117.66966,2302.15777 C1117.66966,2302.15777 1117.55649,2287.65436 1118.86316,2285.31836 C1120.16837,2282.98237 1122.26288,2276.49269 1119.80826,2273.70888 C1117.35512,2270.92507 1111.60662,2259.46975 1111.99759,2254.97542 C1112.38857,2250.47816 1107.47787,2244.91054 1103.74745,2244.83419 C1100.01555,2244.7549 1091.96971,2237.2022 1087.88799,2232.68732 C1083.80628,2228.17097 1077.1215,2233.16303 1077.85347,2242.40716 C1078.58251,2251.65276 1092.44446,2262.09645 1092.44446,2262.09645 C1092.44446,2262.09645 1090.96141,2276.3532 1094.76091,2282.00745 C1094.76091,2282.00745 1095.65604,2302.77444 1089.77084,2308.44777 C1089.77084,2308.44777 1078.34293,2305.25432 1075.91918,2288.70122 C1075.91918,2288.70122 1076.28076,2283.83543 1071.40974,2283.47424 C1066.53873,2283.11451 1057.00248,2270.84138 1056.91429,2269.73284 C1056.82757,2268.62284 1052.44161,2269.71229 1050.47644,2268.37911 C1048.50834,2267.04594 1032.55041,2263.0934 1031.66264,2275.44288 C1030.77486,2287.7909 1047.97921,2288.66892 1047.97921,2288.66892 C1047.97921,2288.66892 1050.42059,2296.00579 1055.90746,2299.4371 C1061.39286,2302.86988 1060.58299,2311.49146 1060.58299,2311.49146 C1060.58299,2311.49146 1059.88188,2316.75662 1061.9367,2319.19833 C1061.9367,2319.19833 1053.05158,2319.89869 1043.89455,2312.43408 C1043.89455,2312.43408 1040.30082,2309.36837 1032.43871,2308.87063 C1024.57659,2308.37436 1022.35568,2308.54908 1018.90746,2307.3319 C1015.45778,2306.11619 1009.74014,2309.17015 1004.55606,2309.57833 C999.374911,2309.98797 997.278936,2316.47766 1005.54966,2322.15246 C1013.82039,2327.82579 1029.44761,2322.87484 1031.93015,2326.02718 C1034.41563,2329.18099 1041.52666,2339.04032 1043.7461,2338.8656 C1045.96701,2338.68941 1046.0846,2344.89278 1049.7136,2348.38576 C1053.34114,2351.87727 1045.99641,2353.1987 1048.08062,2356.01187 C1050.16631,2358.82505 1052.45042,2364.19299 1049.78269,2368.14112 C1047.11348,2372.08779 1053.53516,2377.90795 1053.73799,2380.49795 C1053.9423,2383.08648 1052.58859,2389.5189 1053.87322,2391.65081 C1055.15932,2393.78125 1061.94846,2399.57204 1062.35854,2404.75057 C1062.76715,2409.92617 1062.67896,2408.81764 1065.02628,2414.95788 C1067.3736,2421.09812 1068.34956,2493 1068.34956,2493 L1146.04764,2490.77853 L1133.85983,2456.42138 Z" id="Fill-1" transform="translate(1085.000000, 2362.000000) scale(1, -1) translate(-1085.000000, -2362.000000) "></path>
        </g>
    </g>
</svg>