<?xml version="1.0" encoding="UTF-8"?>
<svg width="1200pt" height="1200pt" version="1.1" viewBox="0 0 1200 1200" xmlns="http://www.w3.org/2000/svg">
 <g>
  <path d="m348.11 980.02 34.391-122.05h-44.965l-70.582 46.703-24.949 75.348z"/>
  <path d="m843.94 980.02 18.309-65.449-16.246-123.23-64.078 41.711-41.223 146.96z"/>
  <path d="m1166.9 783.25-31.188-22.359-19.848 55.141-49.812 5.7109-49.199-257.8 54.18-185.91-127.86-117.59h-194.09l-61.406 42.48-3.1914 112.89-24.578 123.32 158.12-52.574-221.48 126.97 70.539-191.24-21.504-134.53 109.61-67.789-440.89 113.32-281.21 366.12 133.66-55.07-94.742 335.15h141.21l30.133-90.277 82.309-56.027h197.16l69.266 63.828-23.316 82.477h141.27l45.613-161.87 133.31-87.23 147.92 187.23 129.79-56.699z"/>
 </g>
</svg>
