<?xml version="1.0" encoding="UTF-8"?>
<svg width="1200pt" height="1200pt" version="1.1" viewBox="0 0 1200 1200" xmlns="http://www.w3.org/2000/svg">
 <g>
  <path d="m816.9 705.95c38.387 24.098 85.43 50.578 130.98 68.137-75.227 186.73-282.23 365.93-282.23 365.93l-38.461-36.098c150.31-199.29 190.6-322.64 189.71-397.97z"/>
  <path d="m1123.9 714.06s-47.27 31.848-133.31 24.469c-12.191-0.83984-24.707-2.6758-37.379-5.3633-37.273-7.5234-80.172-22.309-128.24-48.562l0.046875-0.023437c-36.84-18.863-70.285-39.492-95.93-56.508l-12.938 17.184c-32.293-2.6758-87.168-46.379-122.55-77.629 8.9023-81.145-27.77-229.39-27.77-229.39 3.0586 55.246-5.9766 198.16-5.9766 198.16-1.4531 28.188-3.7422 49.441-6.3945 65.652l0.011719 0.023437c-0.011719 0-0.011719 0.023438-0.011719 0.070313-3.0234 18.348-6.4688 30.07-9.6367 37.547l-0.097656 0.21484c-1.0781 2.5312-2.1367 4.6211-3.1328 6.2539l-7.4883 14.953c-25.895 62.605-42.48 53.953-42.48 53.953-26.891-6.707-228.97-266.46-228.97-266.46-35.93 0-74.891-25.117-105.65-51.156-2.3867-1.9805-4.6211-3.9492-6.8516-5.9141-1.6914-1.5-3.3359-2.9766-4.957-4.4648-41.449-38.207-56.723-73.176-60.805-84.301-68.465-205.74 250.4-240.14 250.4-240.14 139.5-16.801 257.32 52.906 257.32 52.906 134.65-26.449 218.83 35.566 218.83 35.566s185.17 308.34 163.54 524.76c-0.98438 9.793-2.6289 19.668-4.6211 29.578 43.945 11.207 95.09 15.816 147.1 2.0898 0 0 7.4023-2.9297 9.4453-0.70703 0.16797 0.23828 0.34766 0.39453 0.46875 0.70703 1.6875 4.8242-1.9609 6.5391-1.9609 6.5391z"/>
 </g>
</svg>
