<?xml version="1.0" encoding="UTF-8"?>
<svg width="120px" height="98px" viewBox="0 0 120 98" version="1.1" xmlns="http://www.w3.org/2000/svg" xmlns:xlink="http://www.w3.org/1999/xlink">
    <!-- Generator: Sketch 57 (83077) - https://sketch.com -->
    <title>Path</title>
    <desc>Created with Sketch.</desc>
    <g id="Page-1" stroke="none" stroke-width="1" fill="none" fill-rule="evenodd">
        <g id="Desktop-HD-Copy" transform="translate(-335.000000, -2957.000000)" fill="#FFFFFF" fill-rule="nonzero">
            <path d="M372.7376,3055 C418.0208,3055 442.7888,3017.29353 442.7888,2984.59465 C442.7888,2983.52367 442.7888,2982.4575 442.7168,2981.39617 C447.535191,2977.89332 451.694506,2973.55615 455,2968.58774 C450.506619,2970.58885 445.739981,2971.90118 440.8592,2972.48092 C445.998771,2969.38848 449.845393,2964.52461 451.6832,2958.79448 C446.850356,2961.67676 441.563101,2963.70805 436.0496,2964.80069 C428.417997,2956.64476 416.291453,2954.64856 406.469837,2959.93146 C396.64822,2965.21436 391.57412,2976.46251 394.0928,2987.36861 C374.2971,2986.37119 355.853484,2976.97387 343.352,2961.51536 C336.817389,2972.82173 340.155142,2987.28592 350.9744,2994.54712 C347.056358,2994.43041 343.223741,2993.36813 339.8,2991.44994 C339.8,2991.55125 339.8,2991.65738 339.8,2991.76351 C339.803207,3003.54241 348.064407,3013.68756 359.552,3016.01993 C355.927374,3017.01344 352.124387,3017.15867 348.4352,3016.44446 C351.66055,3026.52439 360.903558,3033.42966 371.4368,3033.6285 C362.718728,3040.51481 351.949086,3044.25312 340.8608,3044.24189 C338.901937,3044.23811 336.94498,3044.1189 335,3043.88489 C346.259053,3051.14675 359.359584,3054.99863 372.7376,3054.9807" id="Path"></path>
        </g>
    </g>
</svg>