<svg fill="#FFFFFF" xmlns="http://www.w3.org/2000/svg" xmlns:xlink="http://www.w3.org/1999/xlink" version="1.1" x="0px" y="0px" viewBox="0 0 90 90" enable-background="new 0 0 90 90" xml:space="preserve"><path fill-rule="evenodd" clip-rule="evenodd" d="M82.988,15.105c-1.346-0.502-3.39-0.623-4.785-0.923  c-0.845-0.183-2.021-0.638-2.148-0.891c-0.143-0.284,2.882-0.985,3.237-1.048c0.729-0.13,2.509-0.421,5.499-0.115  c0.184,0.019,0.337-0.156,0.115-0.334c-0.436-0.353-0.894-0.687-1.303-0.855c-3.778-1.552-5.217-1.354-5.732-1.345  c-0.591,0.01-1.427,0.245-1.969,0.078c-0.555-0.172-1.132-0.583-2.533-1.135c-1.811-0.712-3.311-0.445-4.006-0.369  c-1.664,0.181-2.978,0.494-4.487,1.221c-0.775,0.374-1.426,1.001-2.064,1.568c-0.705,0.624-1.56,1.908-2.046,2.732  c-0.687,1.169-1.309,2.415-1.855,3.656c-0.502,1.139-1.039,2.265-1.471,3.433s-0.967,2.316-1.515,3.435  c-0.386,0.787-1.097,1.667-1.707,2.294c-1.329,1.368-2.294,3.656-3.533,5.174c-0.717,0.878-2.189,1.899-3.127,2.599  c-1.14,0.851-2.217,1.784-3.362,2.626c-0.765,0.563-1.494,1.197-2.299,1.701c-0.977,0.611-1.994,1.176-3.012,1.713  c-1.408,0.743-2.701,1.705-4.076,2.508c-1.463,0.856-2.927,1.768-4.31,2.75c-0.936,0.666-2.094,1.539-2.892,2.358  c-1.425,1.462-2.411,2.379-4.301,3.225c-1.495,0.669-2.797,1.751-4.248,2.512c-1.093,0.572-2.064,1.365-3.048,2.103  c-0.542,0.404-1.034,0.896-1.508,1.377c-0.154,0.156-0.308,0.313-0.455,0.477c-0.054,0.059-0.125,0.128-0.165,0.198  c0.26-0.095,0.514-0.266,0.754-0.398c0.617-0.34,1.655-0.815,2.274-1.15c1.371-0.74,5.596-2.323,5.978-2.471  c0.652-0.203,0.725,0.081,0.643,0.325c-0.176,0.531-10.495,6.363-11.185,6.732c-2.064,1.104-3.962,2.53-5.974,3.727  c-0.323,0.193-1.366,0.968-1.552,1.257c-0.08,0.126-0.151,0.262-0.167,0.408c-0.009,0.003-0.017,0.007-0.025,0.011  c-0.227,0.094-0.086,0.434,0.141,0.34c0.48-0.199,0.97-0.41,1.464-0.628c0.387-0.002-0.022,0.434,0.752,0.35  c0.613-0.066,1.405-0.41,2.04-0.553c0.856-0.193,1.749-0.207,2.604-0.391c0.505-0.11,0.949-0.396,1.391-0.649  c1.565-0.899,3.122-1.817,4.675-2.736c1.137-0.671,2.307-1.295,3.46-1.937c0.971,0.09,1.945,0.194,2.917,0.251  c0.92,0.054,3.2,0.067,4.054-0.07c1.888-0.305,3.745-0.813,5.584-1.326c0.847-0.236,3.509-0.442,4.353-0.249  c0.438,0.1,2.004,1.128,2.592,1.399c0.694,0.32,2.233,0.35,3.025,0.336c0.532-0.01,1.83,0.206,2.315,0.411  c0.433,0.183,0.995,0.833,1.251,1.23c0.242,0.375,0.246,1.014,0.197,1.441c-0.108,0.986-0.001,2-0.12,2.979  c-0.103,0.844-0.383,1.681-0.432,2.531c-0.026,0.507,0.105,0.988,0.113,1.486c0.005,0.308,0.852,1.293,0.979,1.687  c0.219,0.68,0.537,1.345,0.704,2.038c0.117,0.492,0.25,0.98,0.365,1.475c0.24,1.028,0.391,2.33,0.516,3.393  c0.108,0.912,0.15,1.84,0.206,2.755c0.019,0.31,0.015,0.636,0.047,0.942c0.002,0.024,0.035,0.068,0.05,0.084l-0.062,0.072  c0.033,0.2-0.581,0.587-0.729,0.737c-0.311,0.315-1.062,0.207-1.478,0.215c-0.365,0.006-0.78,0.001-1.142-0.075  c-0.541-0.112-1.064-0.265-1.626-0.254c-0.551,0.009-1.007,0.291-1.363,0.695c-0.183,0.207-0.527,0.882-0.556,1.154  c-0.021,0.204,0.041,0.348,0.243,0.42c0.112-0.133,0.172-0.268,0.238-0.428c0.343-0.844,1.786-1.521,2.548-0.859  c-0.034,0.217-0.115,0.824-0.03,1.004c0.091,0.19,0.481,0.337,0.677,0.366c0.268,0.04,0.679-0.228,0.946-0.301  c0.306-0.082,0.552-0.063,0.767,0.176c0.176,0.196,0.741,0.148,1.002,0.184c0.55,0.071,1.47,0.119,1.957,0.296  c0.445,0.161,0.97,0.194,1.438,0.259c0.318,0.043,1.112,0.272,1.333,0.271c0.145-0.001,0.327,0.006,0.385-0.16  c0.013-0.04-0.011-0.066-0.004-0.107c0.022-0.142,0.171-0.387,0.324-0.417c0.352-0.072,0.562,0.648,0.591,0.897  c0.179-0.188,0.355-0.44,0.458-0.68c0.355,0.014,0.744,0.04,1.094-0.019c0.289-0.05,0.561-0.1,0.856-0.062  c0.438,0.056,0.9,0.125,1.343,0.118c0.227-0.004,0.434-0.295,0.508-0.481c0.107-0.264,0.063-0.493,0.427-0.49  c0.292,0.001,0.896,0.117,1.145,0.264c0.275,0.16,0.51,0.56,0.638,0.85c0.084,0.19,0.113,0.372,0.058,0.576  c0.531-0.083,0.193-1.171,0.021-1.438c-0.228-0.354-1.002-0.779-1.403-0.885c-0.68-0.178-1.872,0.033-2.607,0.046l-1.528,0.027  c-0.413,0.007-2.341-0.294-2.723-0.473c-0.325-0.152-0.733-0.381-1.011-0.607c-0.226-0.187-0.397-0.716-0.497-0.995  c-0.039-0.104-0.167-0.259-0.229-0.355c-0.206-0.323-0.524-0.82-0.61-1.188c-0.236-1.002-0.305-2.065-0.477-3.082  c-0.186-1.089-0.263-2.196-0.448-3.282c-0.063-0.372-0.13-0.755-0.137-1.137c-0.005-0.319,0.221-0.922,0.324-1.235  c0.24-0.731,0.199-1.557,0.479-2.272c0.172-0.442,0.101-2.089,0.125-2.678c0.028-0.632-0.084-1.833,0.002-2.351  c0.07-0.414,1.7-3.763,2.281-4.318c1.242-1.187,1.5-0.81,1.684-0.863l-0.11,2.356c-0.016,0.362-0.05,0.735-0.044,1.098  c0.007,0.409-0.539,1.715-0.608,2.276c-0.045,0.365,0.029,1.254,0.115,1.615c0.095,0.397,0.633,1.576,0.874,1.904  c0.32,0.44,0.826,0.73,1.143,1.166c0.606,0.836,1.342,1.576,2.014,2.355c0.36,0.415,0.692,0.868,1.046,1.292  c0.457,0.545,0.96,1.084,1.376,1.66c0.356,0.492,0.643,1.294,1.062,1.689c0.21,0.197,0.477,0.741,0.541,1.023  c0.129,0.568-0.036,1.276-0.339,1.766c-0.134,0.217-0.425,0.302-0.657,0.369c-0.18,0.051-0.592,0.108-0.776,0.063  c-0.218-0.053-0.472-0.201-0.681-0.294c-0.747-0.331-1.122-0.362-1.742,0.235c-0.403,0.386-0.145,1.218-0.136,1.71  c0.166-0.292,0.62-1.364,1.01-1.306c0.175,0.026,0.35,0.062,0.524,0.093l0.274,1.079c1.114,0.77,0.938,0.234,1.556,0.024  c0.3-0.104,0.621-0.095,0.927-0.17c0.282-0.068,0.603-0.328,0.873-0.333c1.015-0.018,1.234,1.184,1.723,1.423  c0.221,0.109,0.926,0.186,1.147,0.082c0.089-0.042,0.277-0.138,0.303-0.261l0.571,0.552c0.178-0.138,0.389-0.266,0.618-0.266  c0.536-0.001,1.121-0.051,1.649,0.006c0.373,0.041,0.765,0.191,1.138,0.185c0.692-0.012,0.228-0.742,0.712-0.841  c0.197-0.04,0.511,0.561,0.586,0.716l0.413,0.249c-0.199-0.407-0.384-0.821-0.584-1.228c-0.152-0.314-0.503-0.463-0.837-0.496  c-0.36-0.036-0.678,0.114-1.03,0.12c-0.368,0.006-3.08-1.028-3.379-1.276c-0.361-0.299-1.012-1.576-1.335-2.042  c-0.235-0.338-0.573-0.643-0.835-0.968c-0.468-0.578-0.918-1.175-1.375-1.762c-0.26-0.333-0.549-0.662-0.787-1.009  c-0.474-0.688-0.848-1.446-1.345-2.121c-0.56-0.756-1.057-1.555-1.595-2.323c-0.132-0.189-0.457-0.71-0.426-0.942  c0.071-0.547,0.264-1.265,0.421-1.799c0.131-0.444,0.023-1.102,0.015-1.574c-0.013-0.681-0.043-1.395,0.052-2.07  c0.076-0.559,0.466-2.021,0.732-2.493c0.303-0.537,1.08-1.504,1.541-1.904c0.691-0.598,1.509-0.978,2.15-1.655  c0.875-0.925,1.433-2.225,2.078-3.314c0.795-1.344,1.53-2.722,2.344-4.054c0.795-1.301,1.522-2.661,2.239-4.009  c0.739-1.394,1.088-3.212,1.664-4.708c0.338-0.876,0.521-1.826,0.758-2.734c0.101-0.39,0.195-0.799,0.36-1.168  c0.376-0.839,0.584-1.888,0.728-2.795c0.11-0.696-0.601-2.527-0.749-3.352c-0.122-0.687-0.193-1.381-0.338-2.063  c-0.203-0.96-0.44-4.328-0.241-5.26c0.116-0.545,0.396-1.901,0.627-2.34c0.288-0.549,0.749-1.049,1.115-1.55  c0.638-0.871,2.698-2.695,3.654-3.192c0.496-0.259,1.379-0.765,1.904-0.874c0.701-0.146,1.698-0.193,2.428-0.221  c0.694-0.026,1.491,0.023,2.186,0.011c0.302-0.005,0.562-0.229,0.319-0.501C84.512,15.67,83.304,15.223,82.988,15.105z"></path></svg>