<svg fill="#333333" xmlns="http://www.w3.org/2000/svg" xmlns:xlink="http://www.w3.org/1999/xlink" version="1.1" x="0px" y="0px" viewBox="0 0 100 100" enable-background="new 0 0 100 100" xml:space="preserve"><path fill="#333333" d="M89.104,23.77c-2.188-0.917-8.146-1.657-9.016,6.62c-0.515,12.046-9.05,18.713-16.434,16.942  c1.537-0.355,2.879-0.9,4.044-1.588c0.35,0.057,0.777,0.269,0.991,0.562c0.093,0.129,0.256,0.167,0.364,0.088l0.738-0.536  l0.738-0.536c0.11-0.079,0.123-0.247,0.031-0.375c-0.27-0.369-0.312-1.021-0.163-1.357c0.435-0.459,0.829-0.945,1.184-1.452  c0.316-0.107,0.801-0.101,1.112,0.079c0.125,0.073,0.276,0.043,0.338-0.062l0.418-0.728l0.421-0.728  c0.061-0.108,0.009-0.253-0.116-0.325c-0.368-0.211-0.65-0.754-0.645-1.09c0.175-0.442,0.33-0.891,0.465-1.343  c0.162-0.254,0.718-0.496,1.121-0.424c0.131,0.025,0.252-0.046,0.271-0.157l0.136-0.752l0.137-0.752  c0.02-0.111-0.07-0.219-0.199-0.243c-0.354-0.064-0.731-0.397-0.862-0.676c0.071-0.634,0.107-1.265,0.112-1.882  c0.123-0.247,0.521-0.537,0.862-0.559c0.119-0.007,0.21-0.096,0.203-0.196l-0.045-0.684l-0.045-0.685  c-0.005-0.102-0.107-0.177-0.225-0.169c-0.351,0.022-0.793-0.224-0.938-0.458c-0.078-0.529-0.18-1.038-0.303-1.521  c-0.021-0.094-0.045-0.187-0.068-0.279c0.055-0.237,0.319-0.564,0.601-0.661c0.099-0.033,0.154-0.13,0.126-0.214l-0.197-0.572  l-0.196-0.572c-0.028-0.085-0.132-0.125-0.231-0.091c-0.281,0.096-0.692,0.001-0.881-0.152c-0.193-0.44-0.399-0.852-0.609-1.239  c-0.017-0.195,0.146-0.532,0.368-0.663c0.073-0.044,0.102-0.13,0.065-0.193l-0.252-0.424L72.273,23.3  c-0.037-0.062-0.127-0.078-0.2-0.034c-0.218,0.129-0.584,0.114-0.75,0.011c-0.247-0.403-0.481-0.786-0.686-1.159  c0.039-0.17,0.209-0.398,0.399-0.474c0.069-0.027,0.105-0.097,0.081-0.156l-0.158-0.399l-0.16-0.4  c-0.023-0.059-0.1-0.084-0.168-0.057c-0.203,0.082-0.512,0.021-0.644-0.088c-0.107-0.443-0.143-0.896-0.08-1.381  c0.104-0.109,0.37-0.19,0.556-0.137c0.064,0.019,0.127-0.009,0.142-0.063L70.71,18.6l0.105-0.363  c0.015-0.054-0.022-0.112-0.087-0.13c-0.166-0.048-0.332-0.223-0.386-0.365c0.405-0.862,1.102-1.84,2.187-3.007  c0.915-0.815,0.342-1.396-0.764-0.757c-4.311,2.432-4.958,6.717-3.261,10.636c4.423,10.081-5.741,23.579-12.796,13.472  c-0.545-1.119,0.197-1.944,1.313-1.523c0.527,0.243,0.846,0.684,1.023,0.997c0.679,1.173,1.409,0.927,1.996,0.344  c1.195-0.428,1.741-1.492,1.312-2.688c0.204-0.97-0.084-1.979-1.522-1.663c-3.088,0.057-5.369-0.851-5.369-2.635  c0.594,0.573,2.168,1.472,3.493,1.472C71.872,10.626,54.537,2.953,50,2.953c-4.537,0-21.872,7.673-7.957,29.435  c1.326,0,2.9-0.899,3.495-1.472c0,1.785-2.282,2.692-5.37,2.635c-1.439-0.315-1.726,0.693-1.522,1.663  c-0.428,1.196,0.117,2.26,1.313,2.688c0.586,0.583,1.316,0.829,1.995-0.344c0.177-0.313,0.497-0.753,1.022-0.997  c1.119-0.421,1.86,0.405,1.315,1.523c-7.054,10.107-17.219-3.391-12.796-13.472c1.697-3.919,1.051-8.204-3.262-10.636  c-1.104-0.639-1.678-0.058-0.762,0.757c1.083,1.167,1.78,2.145,2.186,3.007c-0.054,0.142-0.22,0.316-0.386,0.365  c-0.063,0.018-0.102,0.076-0.086,0.13L29.29,18.6l0.104,0.363c0.015,0.054,0.079,0.083,0.141,0.063  c0.186-0.053,0.452,0.028,0.557,0.137c0.062,0.484,0.027,0.938-0.08,1.381c-0.132,0.11-0.441,0.17-0.644,0.088  c-0.069-0.027-0.144-0.002-0.167,0.057l-0.16,0.4l-0.159,0.399c-0.024,0.059,0.013,0.128,0.082,0.156  c0.189,0.076,0.36,0.304,0.399,0.474c-0.204,0.373-0.438,0.756-0.685,1.159c-0.167,0.103-0.533,0.118-0.75-0.011  c-0.073-0.043-0.163-0.028-0.2,0.034l-0.252,0.424l-0.252,0.424c-0.037,0.062-0.008,0.149,0.065,0.193  c0.222,0.131,0.385,0.467,0.369,0.663c-0.21,0.387-0.417,0.798-0.611,1.239c-0.188,0.154-0.6,0.248-0.88,0.152  c-0.099-0.034-0.203,0.006-0.232,0.091l-0.195,0.572l-0.197,0.572c-0.028,0.084,0.027,0.181,0.127,0.214  c0.281,0.097,0.545,0.424,0.599,0.661c-0.023,0.092-0.046,0.185-0.068,0.279c-0.122,0.483-0.224,0.992-0.302,1.521  c-0.144,0.234-0.587,0.48-0.938,0.458c-0.117-0.008-0.219,0.067-0.226,0.169l-0.044,0.685l-0.045,0.684  c-0.007,0.101,0.083,0.189,0.202,0.196c0.342,0.022,0.74,0.312,0.863,0.559c0.005,0.618,0.042,1.248,0.112,1.882  c-0.13,0.279-0.508,0.612-0.862,0.676c-0.129,0.024-0.219,0.132-0.199,0.243l0.136,0.752l0.136,0.752  c0.02,0.111,0.141,0.182,0.272,0.157c0.403-0.072,0.959,0.17,1.122,0.424c0.134,0.453,0.289,0.901,0.465,1.343  c0.005,0.335-0.277,0.878-0.645,1.09c-0.125,0.072-0.177,0.217-0.116,0.325l0.419,0.728l0.418,0.728  c0.062,0.106,0.213,0.136,0.339,0.062c0.311-0.18,0.795-0.187,1.112-0.079c0.354,0.507,0.748,0.992,1.183,1.452  c0.148,0.335,0.106,0.988-0.162,1.357c-0.092,0.127-0.08,0.295,0.029,0.375l0.739,0.536l0.738,0.536  c0.109,0.079,0.272,0.041,0.365-0.088c0.213-0.294,0.642-0.505,0.991-0.562c1.164,0.688,2.505,1.232,4.043,1.588  c-7.383,1.771-15.918-4.896-16.433-16.942c-0.87-8.277-6.828-7.537-9.016-6.62c-1.975,0.85-1.754,1.909,0.52,1.257  c1.259-0.318,2.212-0.295,2.938-0.007c0.039,0.147,0.003,0.391-0.109,0.528c-0.042,0.051-0.04,0.12,0.002,0.155l0.292,0.24  l0.292,0.24c0.043,0.036,0.112,0.022,0.153-0.027c0.127-0.156,0.411-0.242,0.554-0.202c0.291,0.4,0.507,0.894,0.669,1.458  c-0.057,0.151-0.263,0.345-0.458,0.383c-0.069,0.013-0.115,0.071-0.104,0.128l0.077,0.398l0.076,0.396  c0.011,0.058,0.076,0.096,0.145,0.082c0.2-0.038,0.471,0.071,0.576,0.194c0.067,0.531,0.113,1.096,0.145,1.686  c-0.09,0.165-0.367,0.354-0.601,0.361c-0.082,0.002-0.146,0.06-0.144,0.13l0.015,0.47l0.014,0.471  c0.002,0.068,0.07,0.123,0.152,0.121c0.247-0.008,0.554,0.182,0.638,0.348c0.015,0.53,0.03,1.07,0.049,1.615  c-0.085,0.192-0.403,0.425-0.675,0.44c-0.091,0.005-0.162,0.072-0.158,0.15l0.03,0.529l0.029,0.528  c0.004,0.078,0.082,0.137,0.173,0.131c0.27-0.014,0.606,0.178,0.716,0.358c0.058,0.721,0.139,1.433,0.256,2.126  c-0.104,0.237-0.395,0.522-0.679,0.593c-0.109,0.026-0.178,0.124-0.155,0.216l0.158,0.627l0.157,0.627  c0.023,0.092,0.13,0.146,0.238,0.118c0.297-0.074,0.708,0.052,0.904,0.223c0.046,0.126,0.095,0.251,0.146,0.375  c0.198,0.419,0.459,0.965,0.807,1.592c0.011,0.295-0.204,0.764-0.508,0.961c-0.107,0.069-0.146,0.198-0.087,0.289l0.4,0.614  l0.399,0.616c0.059,0.089,0.194,0.107,0.3,0.038c0.306-0.198,0.828-0.206,1.092-0.075c0.609,0.793,1.344,1.62,2.234,2.428  c0.111,0.343,0.046,0.939-0.213,1.276c-0.096,0.124-0.087,0.289,0.018,0.37l0.712,0.547l0.712,0.548  c0.104,0.08,0.267,0.045,0.361-0.078c0.285-0.371,0.931-0.595,1.28-0.522c2.631,1.604,6.133,2.893,10.809,3.324  c-2.947,1.652-18.648-5.639-25.154,6.09c-2.332,4.15,0.998,7.753,3.454,8.14c1.973,0.403,2.22-0.538,0.488-1.054  c-0.172-0.055-0.337-0.134-0.493-0.231c-0.027-0.15,0.04-0.4,0.175-0.526c0.048-0.044,0.056-0.113,0.018-0.153L14.47,65.15  l-0.257-0.276c-0.038-0.041-0.107-0.038-0.155,0.007c-0.125,0.116-0.353,0.167-0.502,0.145c-0.295-0.528-0.481-1.159-0.528-1.811  c0.078-0.15,0.395-0.309,0.63-0.274c0.074,0.01,0.142-0.033,0.15-0.096l0.06-0.43l0.061-0.429c0.009-0.064-0.044-0.124-0.118-0.134  c-0.23-0.033-0.487-0.262-0.529-0.428c0.119-0.31,0.278-0.605,0.486-0.879c0.23-0.271,0.463-0.525,0.7-0.763  c0.192-0.007,0.47,0.09,0.61,0.253c0.054,0.062,0.141,0.075,0.194,0.029l0.363-0.312l0.363-0.313  c0.054-0.045,0.054-0.133-0.001-0.195c-0.141-0.163-0.194-0.454-0.159-0.643c0.64-0.468,1.299-0.841,1.974-1.133  c0.207,0.09,0.447,0.313,0.519,0.547c0.03,0.093,0.117,0.148,0.197,0.124l0.54-0.17l0.539-0.169c0.079-0.025,0.12-0.121,0.09-0.214  c-0.075-0.237-0.002-0.568,0.12-0.759c0.752-0.164,1.52-0.255,2.297-0.29c0.196,0.187,0.375,0.53,0.368,0.817  c-0.002,0.118,0.076,0.215,0.177,0.217l0.684,0.017l0.683,0.016c0.101,0.002,0.185-0.092,0.187-0.21  c0.007-0.295,0.209-0.637,0.418-0.812c0.827,0.06,1.661,0.157,2.498,0.268c0.237,0.184,0.463,0.668,0.416,1.036  c-0.016,0.129,0.059,0.243,0.168,0.256l0.742,0.095l0.741,0.094c0.108,0.014,0.211-0.079,0.227-0.207  c0.043-0.339,0.332-0.715,0.592-0.865c0.972,0.136,1.942,0.258,2.903,0.334c0.234,0.22,0.448,0.633,0.438,0.977  c-0.003,0.14,0.089,0.255,0.208,0.259l0.806,0.022l0.806,0.022c0.119,0.003,0.219-0.106,0.222-0.247  c0.011-0.366,0.279-0.797,0.541-0.987c1.611-0.104,3.175-0.449,4.656-1.211c-5.462,4.832-14.965,11.601-10.505,23.462  c2.242,5.52,8.123,6.127,8.583,11.394c0.278,2.267-2.738,2.669-3.686,1.276c-0.563-0.926-1.435-0.466-0.896,0.642  c0.259,0.534,1.017,1.178,2.052,1.408c0.106,0.104,0.202,0.289,0.197,0.445c-0.001,0.066,0.041,0.119,0.096,0.12l0.376,0.011  l0.375,0.011c0.055,0.002,0.102-0.05,0.104-0.114c0.004-0.154,0.106-0.33,0.215-0.429c0.451-0.067,0.928-0.22,1.421-0.483  c0.1-0.057,0.194-0.117,0.286-0.18c0.167-0.029,0.432,0.029,0.573,0.163c0.053,0.05,0.13,0.053,0.173,0.008l0.289-0.307l0.289-0.307  c0.042-0.045,0.034-0.123-0.02-0.173c-0.139-0.13-0.213-0.382-0.198-0.549c0.319-0.53,0.509-1.137,0.583-1.79  c0.115-0.118,0.314-0.225,0.485-0.223c0.073,0,0.131-0.05,0.132-0.112V90.28l0.001-0.422c0-0.062-0.059-0.112-0.132-0.112  c-0.182,0-0.395-0.121-0.505-0.248c-0.071-0.577-0.209-1.168-0.406-1.757c0.016-0.18,0.196-0.454,0.405-0.546  c0.072-0.032,0.107-0.106,0.081-0.168l-0.184-0.414l-0.183-0.414c-0.026-0.061-0.107-0.085-0.178-0.052  c-0.189,0.084-0.476,0.051-0.635-0.038c-0.319-0.611-0.693-1.202-1.113-1.75c-0.015-0.206,0.091-0.52,0.271-0.674  c0.068-0.058,0.082-0.15,0.034-0.209l-0.335-0.39l-0.333-0.39c-0.049-0.058-0.145-0.058-0.211,0.001  c-0.2,0.17-0.575,0.221-0.765,0.146c-0.434-0.484-0.817-0.961-1.153-1.432c0.038-0.233,0.221-0.546,0.45-0.674  c0.089-0.051,0.126-0.152,0.084-0.229l-0.292-0.514l-0.29-0.512c-0.042-0.075-0.149-0.097-0.238-0.046  c-0.252,0.143-0.667,0.125-0.874,0.011c-0.359-0.771-0.595-1.518-0.725-2.24c0.151-0.212,0.498-0.429,0.792-0.438  c0.112-0.004,0.2-0.083,0.198-0.177l-0.021-0.646l-0.018-0.644c-0.002-0.095-0.095-0.17-0.208-0.165  c-0.283,0.008-0.624-0.174-0.795-0.368c0.127-0.912,0.414-1.777,0.81-2.591c0.235-0.142,0.763-0.146,1.064,0.052  c0.102,0.066,0.227,0.05,0.283-0.035l0.377-0.584l0.377-0.581c0.056-0.085,0.02-0.209-0.082-0.272  c-0.301-0.196-0.512-0.674-0.48-0.947c0.564-0.691,1.185-1.329,1.818-1.91c0.295-0.095,0.895,0.078,1.166,0.4  c0.089,0.104,0.231,0.128,0.32,0.054l0.602-0.512l0.602-0.508c0.088-0.073,0.089-0.221,0-0.325  c-0.239-0.282-0.321-0.792-0.242-1.101c1.039-0.763,1.92-1.334,2.375-1.692c0.166-0.131,0.337-0.263,0.51-0.393  c0.355,0.003,0.892,0.247,1.126,0.595c0.086,0.126,0.242,0.169,0.351,0.097l0.731-0.499l0.73-0.496  c0.107-0.071,0.126-0.236,0.039-0.361c-0.207-0.304-0.256-0.794-0.178-1.133c1.227-0.646,2.445-1.084,3.459-1.084  s2.232,0.438,3.458,1.084c0.078,0.339,0.03,0.829-0.177,1.133c-0.088,0.125-0.068,0.29,0.039,0.361l0.73,0.496l0.73,0.499  c0.108,0.072,0.265,0.029,0.351-0.097c0.235-0.348,0.771-0.592,1.126-0.595c0.174,0.13,0.345,0.262,0.51,0.393  c0.455,0.358,1.335,0.93,2.374,1.692c0.081,0.309-0.002,0.818-0.24,1.101c-0.09,0.104-0.089,0.252,0,0.325l0.601,0.508l0.603,0.512  c0.089,0.074,0.23,0.051,0.32-0.054c0.271-0.322,0.87-0.495,1.166-0.4c0.633,0.581,1.253,1.219,1.817,1.91  c0.032,0.273-0.179,0.751-0.479,0.947c-0.102,0.063-0.137,0.188-0.083,0.272l0.378,0.581l0.378,0.584  c0.056,0.085,0.181,0.102,0.282,0.035c0.302-0.197,0.829-0.193,1.064-0.052c0.396,0.813,0.683,1.679,0.811,2.591  c-0.173,0.194-0.513,0.376-0.796,0.368c-0.112-0.005-0.206,0.07-0.208,0.165l-0.018,0.644l-0.021,0.646  c-0.002,0.094,0.085,0.173,0.198,0.177c0.293,0.009,0.641,0.226,0.792,0.438c-0.13,0.723-0.366,1.47-0.726,2.24  c-0.207,0.114-0.621,0.132-0.874-0.011c-0.088-0.051-0.195-0.029-0.236,0.046l-0.291,0.512l-0.291,0.514  c-0.042,0.076-0.006,0.178,0.084,0.229c0.229,0.128,0.412,0.44,0.449,0.674c-0.336,0.471-0.719,0.947-1.152,1.432  c-0.19,0.075-0.565,0.024-0.766-0.146c-0.067-0.059-0.161-0.059-0.211-0.001l-0.333,0.39l-0.336,0.39  c-0.048,0.059-0.034,0.151,0.033,0.209c0.182,0.154,0.287,0.468,0.271,0.674c-0.419,0.548-0.794,1.139-1.112,1.75  c-0.159,0.089-0.445,0.122-0.636,0.038c-0.07-0.033-0.151-0.009-0.177,0.052l-0.185,0.414l-0.183,0.414  c-0.027,0.062,0.008,0.136,0.081,0.168c0.208,0.092,0.389,0.366,0.404,0.546c-0.196,0.589-0.333,1.18-0.405,1.757  c-0.11,0.127-0.322,0.248-0.505,0.248c-0.073,0-0.132,0.051-0.132,0.112v0.422v0.422c0.001,0.062,0.059,0.112,0.132,0.112  c0.172-0.002,0.371,0.104,0.486,0.223c0.074,0.653,0.263,1.26,0.583,1.79c0.016,0.167-0.061,0.419-0.198,0.549  c-0.054,0.05-0.062,0.128-0.021,0.173l0.29,0.307l0.289,0.307c0.042,0.045,0.119,0.042,0.172-0.008  c0.143-0.134,0.407-0.192,0.573-0.163c0.091,0.062,0.186,0.123,0.286,0.18c0.492,0.264,0.97,0.416,1.421,0.483  c0.108,0.099,0.21,0.274,0.215,0.429c0.002,0.064,0.05,0.116,0.104,0.114l0.376-0.011l0.376-0.011  c0.055-0.001,0.098-0.054,0.097-0.12c-0.005-0.156,0.09-0.342,0.196-0.445c1.035-0.23,1.793-0.874,2.053-1.408  c0.538-1.107-0.333-1.567-0.896-0.642c-0.947,1.393-3.963,0.99-3.686-1.276c0.459-5.267,6.342-5.874,8.583-11.394  c4.46-11.861-5.043-18.63-10.505-23.462c1.481,0.762,3.045,1.106,4.656,1.211c0.262,0.19,0.53,0.621,0.541,0.987  c0.002,0.141,0.104,0.25,0.222,0.247l0.806-0.022l0.807-0.022c0.119-0.004,0.212-0.119,0.208-0.259  c-0.011-0.344,0.204-0.757,0.438-0.977c0.961-0.076,1.93-0.198,2.903-0.334c0.26,0.15,0.548,0.526,0.59,0.865  c0.017,0.128,0.12,0.221,0.229,0.207l0.74-0.094l0.742-0.095c0.109-0.013,0.184-0.127,0.169-0.256  c-0.048-0.368,0.178-0.853,0.415-1.036c0.838-0.11,1.672-0.208,2.499-0.268c0.207,0.175,0.41,0.517,0.418,0.812  c0.002,0.118,0.086,0.212,0.187,0.21l0.683-0.016l0.683-0.017c0.102-0.002,0.18-0.099,0.177-0.217  c-0.007-0.287,0.173-0.631,0.369-0.817c0.777,0.035,1.545,0.126,2.296,0.29c0.123,0.19,0.196,0.521,0.12,0.759  c-0.029,0.093,0.012,0.188,0.091,0.214l0.539,0.169l0.54,0.17c0.08,0.024,0.167-0.031,0.195-0.124  c0.073-0.233,0.313-0.457,0.521-0.547c0.675,0.292,1.334,0.665,1.975,1.133c0.035,0.188-0.019,0.479-0.159,0.643  c-0.055,0.062-0.055,0.15-0.002,0.195l0.364,0.313l0.362,0.312c0.054,0.046,0.141,0.033,0.195-0.029  c0.14-0.163,0.417-0.26,0.609-0.253c0.236,0.237,0.47,0.491,0.699,0.763c0.208,0.273,0.367,0.569,0.486,0.879  c-0.042,0.166-0.299,0.395-0.529,0.428c-0.074,0.01-0.127,0.069-0.118,0.134l0.061,0.429l0.061,0.43  c0.009,0.062,0.075,0.105,0.151,0.096c0.233-0.034,0.55,0.124,0.628,0.274c-0.046,0.651-0.232,1.282-0.526,1.811  c-0.151,0.022-0.378-0.028-0.504-0.145c-0.047-0.045-0.118-0.048-0.155-0.007l-0.257,0.276l-0.257,0.277  c-0.038,0.04-0.03,0.109,0.018,0.153c0.135,0.126,0.203,0.376,0.175,0.526c-0.156,0.098-0.32,0.177-0.493,0.231  c-1.732,0.516-1.484,1.457,0.488,1.054c2.455-0.387,5.785-3.989,3.453-8.14c-6.505-11.729-22.207-4.438-25.154-6.09  c4.676-0.431,8.179-1.72,10.809-3.324c0.35-0.073,0.994,0.151,1.28,0.522c0.095,0.123,0.258,0.158,0.361,0.078l0.713-0.548  l0.712-0.547c0.104-0.082,0.113-0.246,0.018-0.37c-0.26-0.337-0.325-0.933-0.214-1.276c0.891-0.808,1.625-1.635,2.234-2.428  c0.263-0.131,0.786-0.124,1.092,0.075c0.106,0.07,0.241,0.052,0.3-0.038l0.399-0.616l0.399-0.614  c0.059-0.091,0.021-0.22-0.088-0.289c-0.304-0.197-0.519-0.667-0.508-0.961c0.348-0.627,0.609-1.173,0.809-1.592  c0.051-0.123,0.099-0.248,0.146-0.375c0.196-0.171,0.606-0.297,0.903-0.223c0.108,0.027,0.215-0.026,0.238-0.118l0.157-0.627  l0.157-0.627c0.023-0.092-0.045-0.19-0.155-0.216c-0.284-0.071-0.575-0.355-0.679-0.593c0.118-0.693,0.198-1.405,0.255-2.126  c0.111-0.18,0.447-0.372,0.717-0.358c0.091,0.006,0.169-0.053,0.174-0.131l0.028-0.528l0.03-0.529  c0.004-0.078-0.065-0.146-0.158-0.15c-0.271-0.015-0.59-0.248-0.676-0.44c0.02-0.544,0.035-1.084,0.05-1.615  c0.084-0.167,0.392-0.356,0.638-0.348c0.082,0.002,0.149-0.052,0.151-0.121l0.015-0.471l0.015-0.47  c0.002-0.07-0.062-0.127-0.144-0.13c-0.235-0.007-0.512-0.196-0.602-0.361c0.033-0.589,0.078-1.154,0.146-1.686  c0.105-0.123,0.376-0.231,0.575-0.194c0.068,0.014,0.135-0.023,0.146-0.082l0.076-0.396l0.077-0.398  c0.011-0.058-0.036-0.116-0.105-0.128c-0.195-0.038-0.401-0.231-0.458-0.383c0.163-0.563,0.378-1.057,0.669-1.458  c0.144-0.04,0.428,0.046,0.555,0.202c0.041,0.049,0.11,0.062,0.153,0.027l0.291-0.24l0.293-0.24  c0.042-0.035,0.045-0.104,0.002-0.155c-0.112-0.137-0.147-0.38-0.108-0.528c0.726-0.288,1.679-0.311,2.938,0.007  C90.857,25.678,91.078,24.62,89.104,23.77z M59.462,35.793c0.096-0.188,0.282-0.295,0.48-0.305c0.319-0.541,0.625-0.894,0.742-0.835  c0.118,0.061,0.012,0.515-0.238,1.092c0.109,0.165,0.132,0.38,0.037,0.568c-0.097,0.188-0.283,0.296-0.481,0.305  c-0.319,0.541-0.624,0.896-0.742,0.835c-0.117-0.06-0.011-0.514,0.239-1.091C59.389,36.196,59.366,35.981,59.462,35.793z   M40.74,37.453c-0.118,0.061-0.423-0.294-0.742-0.835c-0.198-0.008-0.385-0.117-0.481-0.305c-0.095-0.188-0.072-0.403,0.037-0.568  c-0.25-0.577-0.356-1.031-0.238-1.092c0.117-0.059,0.422,0.294,0.742,0.835c0.198,0.009,0.386,0.117,0.481,0.305  c0.095,0.188,0.073,0.403-0.038,0.568C40.75,36.939,40.857,37.393,40.74,37.453z"></path></svg>