<svg fill="#666666" xmlns:dc="http://purl.org/dc/elements/1.1/" xmlns:cc="http://creativecommons.org/ns#" xmlns:rdf="http://www.w3.org/1999/02/22-rdf-syntax-ns#" xmlns:svg="http://www.w3.org/2000/svg" xmlns="http://www.w3.org/2000/svg" xmlns:xlink="http://www.w3.org/1999/xlink" xmlns:sodipodi="http://sodipodi.sourceforge.net/DTD/sodipodi-0.dtd" xmlns:inkscape="http://www.inkscape.org/namespaces/inkscape" version="1.1" viewBox="0 0 100 100" x="0px" y="0px"><path style="" d="M 65.48059,9.9833443 51.87512,26.370062 24.84192,38.141547 24.9845,56.588812 1.71302,56.836859 28.422,76.791937 97.87903,55.805609 78.50989,56.01264 78.2013,39.758734 81.20716,39.526312 Z m -13.47265,20.8320307 0,25.792969 -23.4668,-0.212891 -0.21094,-16.277344 z m 8.08789,6.144531 8.99609,0 0,13.382812 -8.99609,0 z" fill="#666666" fill-rule="evenodd" stroke="none"></path><path style="" d="M 36.15829,83.746305 46.44813,92.480327 98.28698,58.112336 Z" fill="#666666" fill-rule="evenodd" stroke="none"></path><path style="" d="M 22.11718,38.678587 23.44236,38.332375 50.82931,25.17639 64.96451,8.9045093 49.32744,16.174925 l -0.0883,-5.885569 -5.21236,-2.7696834 -3.5338,4.0391134 0.35338,9.578491 -5.74243,2.423461 z" fill="#666666" fill-rule="evenodd" stroke="none"></path><path style="" d="m 33.38846,42.395259 0,5.830153 9.19371,0.07475 0.0748,-8.969465 z" fill="#666666" fill-rule="evenodd" stroke="none"></path><g transform="matrix(1.0924609,0,0,1.0848876,237.39837,-124.59117)"><path d="m 5.65625,213.85352 -40.361328,16.44336 -20.88086,15.10937 -0.04883,2.53125 c 1.54927,0.51642 2.101103,0.26683 3.726563,0.29883 l -0.05469,16.74219 -6.3125,0 0.109375,5.22851 90.394532,-0.14453 0.03711,-5.08398 -6.576172,0 0.07422,-16.74219 4.708984,0 L 5.65625,213.85352 Z m -21.410156,23.11523 -0.101563,25.92383 -32.875,0.42383 -0.105469,-13.74219 0.105469,-1.16211 32.976563,-11.44336 z" style="" fill="#666666" fill-rule="evenodd" stroke="none"></path><path d="m -42.605875,249.14082 18.247893,-5.52613 -0.158559,16.34078 -17.908882,0.14949 z" style="" fill="#666666" stroke="none"></path></g></svg>