<svg fill="#333333" xmlns="http://www.w3.org/2000/svg" xmlns:xlink="http://www.w3.org/1999/xlink" version="1.1" x="0px" y="0px" viewBox="0 0 100 100" enable-background="new 0 0 100 100" xml:space="preserve"><path d="M93.004,14.618v4.526h-2.65v-4.526h-2.454v4.526h-2.65v-4.526h-2.062v4.526h-2.65v-4.526h-2.454v4.526h-2.65v-4.526h-3.069  v15.715l2.479,3.52h0.007v29.751H63.594V57.62h2.122l-8.933-14.625H24.328v-2.07h1.829l-5.983-6.99l-5.249-13.547L9.677,33.935  l-5.983,6.99h2.051v43.523h3.921h0h14.662h39.266h1.631v-6.609c0-5.064,7.852-5.064,7.852,0v6.609h1.774h2.991h15.593V33.731  l2.487-3.398V14.618H93.004z"></path></svg>