<svg fill="#FFFFFF" xmlns="http://www.w3.org/2000/svg" xmlns:xlink="http://www.w3.org/1999/xlink" version="1.1" x="0px" y="0px" viewBox="0 0 100 100" enable-background="new 0 0 100 100" xml:space="preserve"><path fill-rule="evenodd" clip-rule="evenodd" d="M34.811,16.502c-0.271-0.275-0.542-0.551-0.814-0.826l0.048,0.05  c-0.002-0.125-0.003-0.25-0.005-0.375l-0.054,0.043c0.408-0.128,0.282-0.276,0.017-0.43l0.037,0.039  c0.935-0.595,1.871-1.186,2.802-1.785c0.768-0.494,0.088-0.368-0.186-0.441c-0.424-0.113-0.272-0.26-0.012-0.41  c1.043-0.599,2.089-1.193,3.125-1.806c0.281-0.167,0.601-0.344,0.772-0.603c0.395-0.595,0.842-0.784,1.549-0.576  c0.28,0.082,0.648-0.143,0.977-0.228c-0.176-0.202-0.388-0.382-0.521-0.609c-0.24-0.41-0.458-0.837-0.637-1.277  c-0.156-0.38-0.246-0.788-0.365-1.184c0.391-0.026,0.784-0.042,1.174-0.082c0.653-0.067,1.306-0.15,1.958-0.227  c0.023,0.035,0.047,0.07,0.071,0.106c-0.038-0.022-0.076-0.044-0.113-0.066c-0.013-0.114,0.004-0.244-0.043-0.341  c-0.356-0.72-0.36-0.718,0.48-0.76l-0.045-0.05c0.126,0.013,0.253,0.026,0.379,0.039l0.027-0.024  c0.678-0.034,0.567-0.395,0.349-0.819c-0.12-0.233-0.424-0.525,0.141-0.629c0.26-0.048,0.51-0.146,0.765-0.223  c-0.233-0.052-0.465-0.121-0.701-0.15c-0.179-0.022-0.373,0.044-0.543,0.002c-0.167-0.042-0.313-0.17-0.468-0.26  c0.202-0.258,0.397-0.729,0.608-0.736c0.78-0.029,1.567,0.078,2.347,0.173c0.23,0.028,0.438,0.241,0.669,0.274  c0.938,0.135,1.403,0.8,1.815,1.539c0.646-0.522,0.246-1.621,1.105-2.014c0.152-0.07,0.354-0.031,0.534-0.043L52.009,1.75  c-0.068,0.271-0.266,0.593-0.182,0.803c0.247,0.619,0.689,1.166,0.894,1.794c0.174,0.534,0.368,0.727,0.952,0.818  C54.226,5.25,54.87,5.565,55.22,5.99c1.535,1.862,3.63,2.589,5.854,3.107c0.296,0.069,0.598,0.169,0.896,0.167  c0.976-0.005,1.651,0.236,1.583,1.427c-0.02,0.329,0.267,0.672,0.395,1.015c0.412,1.101,0.089,2.056-0.951,2.609  c-0.196,0.105-0.539-0.095-0.816-0.102c-0.326-0.008-0.688-0.037-0.973,0.085c-0.342,0.146-0.404,0.485,0.014,0.637  c0.322,0.118,0.78,0,0.759,0.546c-0.016,0.414,0.035,0.891-0.151,1.225c-0.326,0.584-1.858,0.887-2.291,0.448  c-1.262-1.278-2.669-0.73-4.05-0.396c-0.585,0.142-1.115,0.5-1.697,0.664c-1.422,0.4-1.937,1.683-1.043,2.812  c0.45,0.569,0.942,1.146,1.528,1.559c1.444,1.02,2.175,2.484,2.491,4.106c0.257,1.314,1.05,2.168,2.11,2.522  c1.557,0.521,2.296,1.712,3.122,2.904c0.139,0.2,0.229,0.434,0.366,0.636c0.92,1.368,1.638,1.4,2.659,0.126  c0.076-0.096,0.145-0.202,0.236-0.281c1.676-1.431,3.079-3.076,4.108-5.039c0.395-0.752,1.066-1.082,1.932-1.183  c1.392-0.163,2.771-0.438,4.151-0.68c0.602-0.105,1.242-0.143,1.783-0.391c0.879-0.403,1.764-0.387,2.687-0.372  c1.008,0.016,1.921,0.484,3.027,0.278c0.721-0.134,1.626,0.642,2.418,1.066c0.115,0.062,0.148,0.476,0.071,0.667  c-0.722,1.802-2.605,2.315-4.345,1.249c-0.258-0.158-0.822-0.259-0.943-0.122c-0.802,0.911-1.795,0.708-2.696,0.432  c-0.603-0.184-1.055-0.068-1.575,0.106c-2.5,0.835-4.252,2.408-5.279,4.892c-0.954,2.305-2.12,4.521-3.19,6.778  c-0.325,0.686-0.924,0.804-1.608,0.986c-1.459,0.387-2.872,0.957-4.291,1.484c-0.388,0.144-0.486,0.354-0.18,0.808  c0.978,1.45,1.854,2.967,2.79,4.447c0.353,0.558,0.766,1.078,1.134,1.628c0.436,0.651,0.379,1.089-0.302,1.284  c-0.929,0.264-1.905,0.5-2.859,0.493c-1.521-0.011-2.046-0.729-1.915-2.43c0.036-0.473,0.118-0.715-0.477-0.878  c-0.981-0.269-1.492-0.993-1.468-2.054c0.003-0.142-0.134-0.408-0.204-0.407c-0.16,0.001-0.344,0.103-0.474,0.215  c-0.674,0.582-0.743,1.377-0.695,2.185c0.089,1.507-0.285,2.842-1.146,4.109c-0.61,0.9-1.083,1.921-1.461,2.945  c-1.31,3.555-3.836,5.911-7.259,7.299c-0.837,0.34-0.691,0.657-0.438,1.163c0.188,0.376,0.458,0.714,0.715,1.051  c0.372,0.484,0.842,0.91,1.132,1.438c0.525,0.953,0.948,1.963,1.414,2.948c-0.735,1.185-0.535,2.747-1.583,3.822  c-0.373,0.382-0.699,0.88-0.863,1.385c-0.492,1.511-1.463,2.68-2.571,3.736c-1.142,1.09-1.604,2.366-1.599,3.933  c0.008,2.854,0.994,5.318,2.538,7.679c1.016,1.553,2.223,2.822,3.745,3.841c0.419,0.281,1.186,2.566,1.03,2.966  c-0.042,0.106-0.13,0.208-0.222,0.277c-0.824,0.62-2.72,0.367-3.359-0.457c-0.482-0.621-0.926-1.272-1.417-1.887  c-0.169-0.211-0.426-0.497-0.646-0.499c-1.624-0.017-1.953-1.184-2.268-2.412c-0.331-1.291-0.645-2.592-1.069-3.853  c-0.448-1.33-1.266-2.454-2.063-3.617c-0.837-1.221-1.31-2.714-1.812-4.134c-0.218-0.617,0.001-1.244,0.497-1.845  c0.928-1.125,1.67-2.401,2.52-3.593c0.34-0.478,0.129-0.789-0.208-1.1c-0.087-0.08-0.203-0.142-0.315-0.182  c-1.848-0.66-3.25-1.878-4.422-3.423c-0.454-0.598-0.646-0.546-0.983,0.163c-0.207,0.437-0.341,0.909-0.493,1.371  c-0.248,0.754-0.416,1.545-1.292,1.886c-0.2,0.077-0.423,0.303-0.48,0.505c-0.33,1.159-1.138,1.998-1.862,2.893  c-0.282,0.349-0.315,0.862,0.091,0.871c1.233,0.028,1.444,1.212,2.149,1.794c1.052,0.868,1.813,2.089,2.694,3.162  c0.066,0.081,0.102,0.188,0.152,0.281c-0.159,0.008-0.348,0.076-0.471,0.013c-0.386-0.198-0.747-0.446-1.117-0.675  c-0.165,0.737,0.535,0.853,0.867,1.244c0.344,0.405,0.613,0.881,0.868,1.351c0.064,0.119-0.047,0.334-0.078,0.505  c-0.117-0.092-0.245-0.173-0.348-0.278c-0.214-0.218-0.396-0.472-0.632-0.661c-0.094-0.075-0.295-0.018-0.447-0.02  c0,0.158-0.041,0.331,0.006,0.475c0.184,0.566-0.007,1.168-0.142,1.635c-0.243,0.846-0.836,1.589-1.277,2.378  c-0.214,0.383-0.292,0.117-0.457-0.056c-0.286-0.299-0.576-0.673-0.941-0.804c-2.089-0.748-2.095-0.728-2.949-1.965  c-0.116-0.169-0.249-0.326-0.374-0.489c-0.095,0.215-0.284,0.434-0.271,0.642c0.112,1.885,0.072,3.807,1.071,5.519  c0.342,0.587,0.533,1.172,0.529,1.889c-0.004,0.823,0.292,1.549,0.812,2.32c0.621,0.921,0.687,2.23,0.913,3.387  c0.034,0.175-0.363,0.435-0.561,0.655c-0.735,0-1.471,0-2.206,0c-0.163-0.177-0.31-0.371-0.489-0.529  c-0.994-0.883-1.851-1.791-1.12-3.279c0.296-0.604,0.066-1.014-0.577-1.288c-0.287-0.122-0.649-0.498-0.655-0.767  c-0.02-0.897-0.118-1.896,0.224-2.676c0.585-1.338,0.411-2.626,0.198-3.936c-0.083-0.515-0.397-1.015-0.692-1.465  c-0.277-0.423-0.767-0.462-1.089-0.102c-0.216,0.241-0.222,0.67-0.322,1.015c-0.14-0.271-0.281-0.542-0.421-0.813  c-0.145,0.088-0.322,0.146-0.427,0.269c-0.237,0.273-0.408,0.61-0.669,0.854c-0.088,0.082-0.368-0.043-0.561-0.074  c0.292-0.49-0.34-1.016-0.281-1.094c0.71-0.933,0.006-1.788-0.36-2.357c-0.753-1.172-1.983-2.043-2.07-3.604  c-0.715-0.388-1.066-0.974-1.014-1.799c0.003-0.055-0.182-0.187-0.254-0.17c-0.443,0.099-0.412,0.103-0.512-0.309  c-0.269-1.107,0.005-2.393-1.044-3.25c0-0.367,0-0.735,0-1.103c0.08-0.09,0.217-0.172,0.23-0.271  c0.302-2.169,1.478-3.824,3.062-5.241c0.038-0.03,0.078-0.058,0.113-0.091c0.018-0.017,0.026-0.044,0.039-0.066  c-0.034,0.068-0.068,0.137-0.102,0.205c-0.479,0.168-0.957,0.337-1.435,0.506c-0.274-0.792,0.473-0.995,0.804-1.452  c0.199-0.275,0.886-0.66,0.032-1.015c0.093-0.172,0.144-0.415,0.288-0.501c0.522-0.313,1.062-0.604,1.62-0.847  c0.754-0.326,1.298-0.846,1.787-1.504c0.614-0.827,0.957-1.605,0.605-2.678c-0.573-1.752-0.231-3.426,0.381-5.168  c0.556-1.584,1.362-3.118,1.475-4.867c0.031-0.477,0.487-0.966,0.837-1.374c0.973-1.135,1.933-2.223,3.308-3  c2.227-1.258,4.033-3.095,5.613-5.115c0.247-0.315,0.405-0.793,0.401-1.194c-0.014-1.282,0.462-2.382,1.055-3.469  c0.066-0.122-0.073-0.357-0.116-0.54c-0.168,0.057-0.337,0.115-0.505,0.172l-0.002-0.002c0.198-0.799-0.526-1.128-0.936-1.454  c-0.475-0.377-0.566-0.718-0.441-1.198c0.186-0.714,0.418-1.417,0.63-2.125c0.052-0.028,0.108-0.051,0.152-0.088  c0.022-0.018,0.023-0.063,0.034-0.095c-0.045,0.077-0.091,0.154-0.136,0.231c-0.267,0.075-0.684,0.069-0.774,0.238  c-0.373,0.696-0.922,0.507-1.475,0.41l0.04,0.042c0.441-0.724,0.935-1.421,1.304-2.18c0.221-0.454,0.062-0.797-0.589-0.761  c-0.689,0.039-0.976-0.322-0.639-0.806c0.547-0.787,1.188-1.518,1.86-2.204c0.357-0.364,0.817-0.747,0.487-1.178  c-0.157-0.205-0.861-0.017-1.311,0.043c-0.162,0.021-0.293,0.211-0.458,0.278c-0.305,0.123-0.624,0.21-0.938,0.312  c0.1-0.324,0.141-0.684,0.311-0.965c0.652-1.083,1.223-2.163,0.813-3.498c-0.047-0.153,0.089-0.391,0.191-0.559  c0.44-0.724,0.914-1.428,1.346-2.157c0.42-0.708-0.156-0.634-0.564-0.677L34.811,16.502z"></path><path fill-rule="evenodd" clip-rule="evenodd" fill="none" d="M16.368,73.457c1.049,0.857,0.775,2.143,1.044,3.25  c0.1,0.411,0.069,0.407,0.512,0.309c0.072-0.017,0.258,0.115,0.254,0.17c-0.052,0.825,0.299,1.411,1.014,1.799  c0.086,1.561,1.316,2.432,2.07,3.604c0.366,0.569,1.07,1.425,0.36,2.357c-0.059,0.078,0.573,0.604,0.281,1.094  c0.192,0.031,0.473,0.156,0.561,0.074c0.261-0.243,0.433-0.58,0.669-0.854c0.105-0.122,0.282-0.181,0.427-0.269  c0.14,0.271,0.281,0.541,0.421,0.813c0.1-0.345,0.106-0.773,0.322-1.015c0.322-0.36,0.812-0.321,1.089,0.102  c0.295,0.45,0.609,0.95,0.692,1.465c0.212,1.31,0.387,2.598-0.198,3.936c-0.342,0.78-0.244,1.778-0.224,2.676  c0.006,0.269,0.369,0.645,0.655,0.767c0.644,0.274,0.874,0.685,0.577,1.288c-0.73,1.488,0.126,2.396,1.12,3.279  c0.179,0.158,0.326,0.353,0.489,0.529c-3.8,0-7.6-0.02-11.399,0.02c-0.639,0.007-0.757-0.117-0.755-0.755  C16.377,89.883,16.368,81.67,16.368,73.457z"></path><path fill-rule="evenodd" clip-rule="evenodd" d="M52.053,1.793c-0.015-0.015-0.029-0.029-0.044-0.044L52.053,1.793z"></path><path fill-rule="evenodd" clip-rule="evenodd" d="M45.07,4.714c0.077-0.097,0.153-0.194,0.23-0.292  c0.044,0.085,0.087,0.171,0.131,0.256l-0.027,0.024c-0.126-0.013-0.253-0.025-0.379-0.039L45.07,4.714z"></path><path fill-rule="evenodd" clip-rule="evenodd" fill="none" d="M45.025,4.664c0.126,0.013,0.253,0.026,0.379,0.039  C45.278,4.69,45.152,4.677,45.025,4.664z"></path><path fill-rule="evenodd" clip-rule="evenodd" fill="none" d="M44.634,5.815c0.038,0.022,0.075,0.044,0.113,0.066  c-0.024-0.036-0.047-0.071-0.071-0.106L44.634,5.815z"></path><path fill-rule="evenodd" clip-rule="evenodd" fill="none" d="M35.16,30.116c0.045-0.077,0.091-0.154,0.136-0.231  c-0.011,0.033-0.012,0.077-0.034,0.095c-0.044,0.037-0.101,0.06-0.152,0.088L35.16,30.116z"></path><path fill-rule="evenodd" clip-rule="evenodd" fill="none" d="M19.709,66.891c0.034-0.068,0.068-0.137,0.102-0.205  c-0.013,0.022-0.021,0.05-0.039,0.066c-0.035,0.033-0.075,0.061-0.113,0.091L19.709,66.891z"></path></svg>