<?xml version="1.0" encoding="UTF-8"?>
<svg width="1200pt" height="1200pt" version="1.1" viewBox="0 0 1200 1200" xmlns="http://www.w3.org/2000/svg">
 <path d="m1179.8 1044.3c-11.164-14.727-11.238-39.273-11.238-80.438s-80.473-110.36-99.164-142.18c-18.727-31.816-16.836-162.76-16.836-162.76 11.238 76.691 50.508 121.6 69.199 132.84 18.691 11.238 56.145-7.4922 24.328-14.98-31.816-7.4922-56.109-28.035-71.09-176.29-14.98-148.25-194.58-224.04-252.55-225.89-58-1.8906-93.527 28.035-132.8 24.289-39.273-3.7461-93.527-24.289-147.78-18.691-0.98047 0.10938-2 0.035156-2.9805 0.10938-11.344-31.562-42.289-59.492-79.926-57.492-24.91 1.3086-48.254 17.746-64.98 33.09-18.145-6.8008-42.547-15.855-74.691-3.7812-44.91 16.836-123.49 80.438-123.49 80.438-127.24 20.582-123.49-102.91-117.86-144.04 5.6367-41.129 5.6016-114.11 1.8906-140.29-3.7812-26.184-10.289-7.4922-22.473 4.6914-10.035 10.07-56.543-33.676-32.215 13.086 24.328 46.762 6.0352 143.13 6.0352 143.13-41.199 194.14 149.64 217.02 149.64 217.02-46.438 55.562-149.64 13.09-149.64 13.09 69.199 91.672 196.4 9.3438 196.4 9.3438-28.035 31.816-13.09 39.309-13.09 39.309 32.691 0 74.219-50.762 131.38 14.617 2.9453 44.582 14.727 80.254 23.309 64.547 2.4375-4.5078 9.0547-13.781 17.926-25.855 53.637 34.871 111.6 25.418 119.24 66.398 9.3438 50.508-17.781 273.13-26.219 293.71s-35.273 63.602-10 63.602h84.836c28.035 0 9.3828-46.762 11.238-65.453 1.8906-18.727 25.711-106.66 25.711-106.66 18.219 18.727 36.254 113.89 28.547 121.6-14.035 14.035-20.582 50.508-9.3438 50.508h64.508c20.547 0 32.727-1.8555 32.727-16.836s-16.836-58-16.836-84.184c0-26.184-26.219-181.45-26.219-181.45 72.98 54.254 173.96 37.418 173.96 37.418 20.582 43.02 16.836 127.24-18.691 183.34-35.602 56.109-16.836 61.816-1.8906 61.816h85.129c18.691 0 3.9648-32.398 3.9648-48.328 0-7.7109 17.527-64 15.672-103.27-1.8906-39.273 33.672-78.582 33.672-78.582 0 54.254 95.418 87.926 104.76 101.02 9.3438 13.09 56.145 28.074 13.09 80.438-43.055 52.363 3.7461 48.617 18.691 48.617h54.254c30.07-0.03125 38.289-12.18 31.887-20.613z" fill="#fff"/>
</svg>
