<?xml version="1.0" encoding="UTF-8"?>
<svg width="1200pt" height="1200pt" version="1.1" viewBox="0 0 1200 1200" preserveAspectRatio="none" xmlns="http://www.w3.org/2000/svg">
 <path d="m728.02 1071.3-20.258-202.08h20.543v-19.992h-22.547l-17.375-173.33h36.109v-19.5h-38.062l-48.516-483.96h14.23v-13.5h-17.496l-17.16-63.215h-34.969l-17.16 63.215h-17.496v13.5h14.23l-48.516 483.96h-38.062v19.5h36.109l-17.375 173.33h-22.547v19.992h20.543l-20.258 202.08h-53.906v32.988h363.84v-32.988zm-42.324-202.08-36.707 81.758-38.676-81.758zm-84.66-19.992h-68.039l67.008-38.027 67.008 38.027zm84.359-3.3125-74.34-42.18 66.312-37.836zm-11.387-113.59-53.172-56.426h47.508zm-7.6094-75.926h-8.4844l8.2422-2.3516zm-3.418-34.043-55.824-62.832 44.941-45.758zm-14.375-143.44-40.598-34.488 34.008-31.211zm-10.32-102.97-30.66-32.16 25.223-21.961zm-9.8047-97.801-21.539-30.254c0.14453-1.0312 0.046875-2.0898-0.33594-3.0586l-0.17969-0.48047 14.82-38.461zm-30.672-162.42h4.3906l11.734 43.223h-27.859zm-15.84 58.344 0.44531-1.6328h35.18l0.44531 1.6328 0.53906 5.4375-18.574 48.215-18.59-48.215zm-3.1914 31.824 14.82 38.461-0.17969 0.48047c-0.38281 0.97266-0.48047 2.0273-0.33594 3.0586l-21.539 30.254zm-9.6484 96.254 30.875-43.355 30.875 43.355 0.50391 5.0625-31.379 27.348-31.391-27.336zm-1.9805 19.68 25.223 21.961-30.66 32.16zm-7.3672 73.488 40.223-42.18 40.223 42.191 0.30078 3.0234-40.523 37.234-40.523-37.246zm-1.7891 17.902 34.008 31.211-40.598 34.488zm-8.3047 82.836 50.316-42.719 50.316 42.719 0.22656 2.2188-50.543 51.469-50.543-51.457zm-1.7773 17.715 44.941 45.758-55.824 62.832zm52.094 55.727 64.477 72.574-50.316 14.328h-28.32l-50.316-14.328zm-66.156 84.562 8.2422 2.3516h-8.4844zm-2.1836 21.84h47.508l-53.172 56.426zm-7.6211 75.949 71.566-75.949h8.7812l71.566 75.949 0.10938 1.0195-76.062 43.406-76.055-43.402zm-1.4023 14.039 66.312 37.836-74.34 42.18zm67.043 103.33-38.676 81.758-36.707-81.758zm-97.668 202.08 18.238-181.92 34.031 75.793-50.195 106.12h-2.0742zm15.312 0 43.414-91.766 41.195 91.766zm92.676-11.223-42.539-94.754 42.539-89.926 42.539 89.93zm8.0625 11.223 41.195-91.766 43.414 91.766zm97.848 0-50.195-106.12 34.031-75.793 18.238 181.92h-2.0742z" fill="#212121" fill-rule="evenodd"/>
</svg>
