<svg fill="#666666" xmlns="http://www.w3.org/2000/svg" viewBox="0 0 100 100" x="0px" y="0px"><title>Noun_Project_50Icon_10px_grid_WBD03 OK</title><g data-name="Calque 2"><path d="M23.82,23.07A1.82,1.82,0,1,1,22,24.88,1.82,1.82,0,0,1,23.82,23.07Zm0,5.58a3.73,3.73,0,0,0,2-.56c2.07,1.44,9.08,6.45,10.21,7.14a6.25,6.25,0,0,0,3.19,1.25c.63,0,2,.06,4.13.06A2.75,2.75,0,0,0,45.8,38a2.76,2.76,0,1,0-2.69-3.32c-1.94,0-3.26,0-3.82-.06A3.81,3.81,0,0,1,37,33.71c-1-.63-7.64-5.39-9.9-7A4,4,0,0,0,27.57,25a3.7,3.7,0,0,0-3.7-3.7,3.74,3.74,0,0,0-3.7,3.7A3.6,3.6,0,0,0,23.82,28.64Z"></path><path d="M22.13,44.61a1.82,1.82,0,1,1,1.82,1.82A1.78,1.78,0,0,1,22.13,44.61Zm5.39.94H33a2.71,2.71,0,0,0,2.57,1.82,2.76,2.76,0,0,0,0-5.51A2.71,2.71,0,0,0,33,43.67H27.52a3.76,3.76,0,0,0-3.57-2.76,3.7,3.7,0,0,0-3.7,3.7,3.74,3.74,0,0,0,3.7,3.7A3.52,3.52,0,0,0,27.52,45.55Z"></path><path d="M28.33,49.87a1.82,1.82,0,1,1-1.82,1.82A1.82,1.82,0,0,1,28.33,49.87Zm0,5.58a3.7,3.7,0,0,0,3.57-2.76H33a2.72,2.72,0,0,0,2.57,1.82,2.76,2.76,0,0,0,0-5.51A2.71,2.71,0,0,0,33,50.81H31.9a3.76,3.76,0,0,0-3.57-2.76,3.7,3.7,0,0,0,0,7.39Z"></path><path d="M23.7,75.24a1.82,1.82,0,1,1,1.82-1.82A1.78,1.78,0,0,1,23.7,75.24Zm1.06-5.39V63.4c0-2.94,1-3.57,2.69-3.57,2.07,0,4.38,0,5.39.06a2.73,2.73,0,0,0,2.63,1.82,2.76,2.76,0,1,0,0-5.51A2.71,2.71,0,0,0,32.9,58c-1.06,0-3.38-.06-5.39-.06-4.64,0-4.64,4.07-4.64,5.45v6.39A3.76,3.76,0,0,0,20,73.42a3.7,3.7,0,0,0,3.7,3.7,3.74,3.74,0,0,0,3.7-3.7A3.58,3.58,0,0,0,24.76,69.86Z"></path><path d="M75.06,75.24a1.82,1.82,0,1,1,1.82-1.82A1.82,1.82,0,0,1,75.06,75.24Zm.81-5.45V63.4c0-1.31,0-5.45-4.57-5.45-2.07,0-4.38,0-5.39.06a2.71,2.71,0,0,0-2.57-1.82,2.76,2.76,0,1,0,0,5.51A2.85,2.85,0,0,0,66,59.9c1.06,0,3.38-.06,5.39-.06C73,59.83,74,60.4,74,63.4v6.45a3.7,3.7,0,0,0,1,7.26,3.71,3.71,0,0,0,.82-7.33Z"></path><path d="M72.42,23.69A1.57,1.57,0,1,1,74,25.26,1.59,1.59,0,0,1,72.42,23.69ZM63.59,47.37A2.76,2.76,0,0,0,66,45.86h4.57c4.26,0,4.26-3.76,4.26-5V27a3.46,3.46,0,1,0-4.26-3.38A3.44,3.44,0,0,0,73.05,27v13.9c0,2.63-.82,3.13-2.38,3.13H66.35a2.75,2.75,0,0,0-5.45.56A2.63,2.63,0,0,0,63.59,47.37Z"></path><path d="M76.37,50.13a1.82,1.82,0,1,1-1.82,1.82A1.78,1.78,0,0,1,76.37,50.13Zm-13,4.57A2.71,2.71,0,0,0,66,52.88h6.77a3.76,3.76,0,0,0,3.57,2.76A3.7,3.7,0,1,0,72.74,51H66a2.71,2.71,0,0,0-2.57-1.82,2.78,2.78,0,0,0-2.76,2.76A2.73,2.73,0,0,0,63.4,54.7Z"></path><rect x="40.48" y="39.98" width="18.04" height="23.93" rx="3.95" ry="3.95"></rect><path d="M40.48,24.45a1.82,1.82,0,1,1-1.82,1.82A1.86,1.86,0,0,1,40.48,24.45Zm0,5.58A3.7,3.7,0,0,0,44,27.33h6.26c.69,0,1.31,0,1.57.25s.31.44.31,1.25c0,1.13,0,2.63-.06,3.82a2.76,2.76,0,1,0,3.76,2.57,2.76,2.76,0,0,0-1.94-2.63c0-1.19.06-2.63.06-3.76a3.32,3.32,0,0,0-.82-2.57,3.69,3.69,0,0,0-2.88-.75h-6.2A3.71,3.71,0,1,0,40.48,30Z"></path><path d="M35,76.18a1.82,1.82,0,1,1-1.82-1.82A1.78,1.78,0,0,1,35,76.18ZM45.8,66A2.71,2.71,0,0,0,43.3,67.6h-7c-1.31,0-4.07,0-4.07,3.7v1.25a3.68,3.68,0,0,0,.88,7.27,3.74,3.74,0,0,0,3.7-3.7,3.7,3.7,0,0,0-2.69-3.57c0-.37-.06-.82-.06-1.25,0-1.69.56-1.82,2.19-1.82h6.83a2.69,2.69,0,0,0,2.63,2,2.78,2.78,0,0,0,2.76-2.76A2.69,2.69,0,0,0,45.8,66Z"></path><path d="M62.71,78a1.82,1.82,0,0,1-1.82-1.82,1.87,1.87,0,0,1,1.82-1.88,1.82,1.82,0,0,1,1.82,1.82A1.87,1.87,0,0,1,62.71,78Zm.88-5.45V71.29c0-3.7-2.76-3.7-4.07-3.7H55.7A2.67,2.67,0,0,0,53.2,66a2.76,2.76,0,1,0,2.63,3.51h3.7c1.63,0,2.19.12,2.19,1.82a8.09,8.09,0,0,1-.06,1.25,3.7,3.7,0,1,0,4.7,3.57A3.57,3.57,0,0,0,63.59,72.55Z"></path></g></svg>