<svg xmlns="http://www.w3.org/2000/svg" xmlns:xlink="http://www.w3.org/1999/xlink" width="100" height="100" viewBox="0 0 100 100"><g><circle stroke="none" fill="#b98b53" r="48%" cx="50%" cy="50%"></circle><g transform="translate(50 50) scale(-0.69 0.69) rotate(0) translate(-50 -50)" style="fill:#ffffff;"><svg fill="#ffffff" xmlns="http://www.w3.org/2000/svg" xmlns:xlink="http://www.w3.org/1999/xlink" version="1.1" x="0px" y="0px" viewBox="0 0 100 100" enable-background="new 0 0 100 100" xml:space="preserve"><path fill="#ffffff" d="M95.2,40.3c-2.6-1.5-15.6-2.5-15.6-2.5c-0.9-0.2-13.9,1.8-13.9,1.8s-5.4-0.5-17.2,5.9c0,0,1.2-3.4-0.9-3.9  c-0.2-0.1-0.4-0.1-0.5-0.1L55.7,28l13.8-4.5c0,0,0.3-0.1,0.7-0.3c0,0,9.7,2.4,11.5,2.9c1.8,0.4,3,0.4,3,0.4  c-1.5-1.2-14.6-4.4-14.6-4.4c-1.8-0.4-11.8,3.5-11.8,3.5s-1.3-0.4-2.4,0.1c-1,0.6-2.7,2.6-3.5,3.8s-6.9,11.8-6.9,11.8l-1.3-0.1  l-1.1-10.7l5.3-4.8l4.1,2l0.6-0.9c0,0-4.1-2.6-5-2.5c-0.9,0.1-6.4,5.3-6.6,5.7c-0.2,0.4-0.7,1.2-0.3,2.5c0.3,1.2,1.6,8.7,1.6,8.7  L41,41.5c0,0-4.4-6.5-5.4-6.5c-1,0-4.4-1.5-5.3-1.1s-1.2,2.8-1.2,2.8s1.1-1.3,1.9-1.1c0.8,0.2,3.9,0.9,3.9,0.9l1.7,2.1l0.2,0.7  c-1-0.3-2.2-0.5-3.8-0.2c-0.4,0.1-0.8,0.2-1.2,0.3c-1.5-1.1-4.1-3-6.3-3.6C22.4,35,11.7,38,11.7,38s-3.4,2.6-6.5,12.2  c0,0,1.2-0.4,2.1-2.2s4.5-7.9,4.5-7.9s10-3.1,12.5-2.5c1.9,0.5,4,1.3,5.3,2.7c-3.8,2.1-5.6,6.3-4.3,9.7c1.6,4.4,9.2,4.9,13.8,0  l0.3,1c0,0-9.8,11.6-12.3,16.1l0,0c0,0-8.1,13-7.9,14.4c0,0,2.6-3.2,3.1-3.8c0.6-0.6,7.8-12,7.8-12l0,0c3.9-4.4,9.6-12,11.1-13.3  c0,0-0.1,2.3,0,3.9l0,0c0,0-0.4,9.7,0,9.4c0.4-0.3,1.4-9.4,1.4-9.4c0.3-1.1,0.4-2.8,0.4-5.2c0,0,1-0.3,1.1-2.2c0,0,0.8,0.9,3.5,0.7  c2.7-0.2,9.4,0,14,1.8c0,0,0.7,0,1.1-0.2c2.1,1.1,8.1,4.3,8.4,4.3c0.3,0-5.8-4.3-8.5-5.4c-1.5-1.2-9.6-2.4-13.1-2.9  c0,0,11.3-5.7,16.5-6.4c5.1-0.7,13.7-2,13.7-2s0,0,0.1-0.1C85.1,38.6,95.2,40.3,95.2,40.3z"></path></svg></g></g></svg>